
<svg width="24px" height="22px" viewBox="0 0 24 22" version="1.1" xmlns="http://www.w3.org/2000/svg" xmlns:xlink="http://www.w3.org/1999/xlink">
    <g id="Page-1" stroke="none" stroke-width="1" fill="none" fill-rule="evenodd">
        <g id="UI-MAIN" transform="translate(-677.000000, -2486.000000)" fill="#EF1832">
            <g id="Group-8" transform="translate(70.000000, 2088.000000)">
                <g id="Group-11" transform="translate(0.000000, 104.000000)">
                    <g id="Group-6">
                        <g id="Group-9">
                            <g id="Форма">
                                <g id="Group-2">
                                    <g id="Group-7" transform="translate(606.000000, 0.000000)">
                                        <g id="clip-(2)" transform="translate(1.000000, 294.000000)">
                                            <path d="M22.1843471,1.81565289 C19.7634766,-0.605217629 15.8377554,-0.605217629 13.4169532,1.81565289 L1.36229073,13.870247 C-0.454096911,15.6866347 -0.454096911,18.6297636 1.36229073,20.4462196 C2.85941792,21.9433468 5.1175483,22.185099 6.88281053,21.2133743 C7.06721745,21.2040788 7.24854864,21.1343623 7.38962198,20.994861 L19.4442161,8.94026682 C20.6546172,7.72986574 20.6546172,5.76775698 19.4442161,4.5573559 C18.2338151,3.34695482 16.2717063,3.34695482 15.0613052,4.5573559 L5.19813235,14.4204604 C4.89589091,14.7227019 4.89589091,15.213998 5.19813235,15.5161711 C5.50037379,15.8184125 5.99166991,15.8184125 6.29384299,15.5161711 L16.1570159,5.65306654 C16.7630024,5.04707998 17.7440226,5.04707998 18.3485055,5.65306654 C18.9544921,6.2590531 18.9544921,7.2400733 18.3485055,7.84455618 L6.84098064,19.3520127 C5.63057956,20.5624138 3.66847081,20.5624138 2.45806973,19.3520127 C1.24766864,18.1416116 1.24766864,16.1795028 2.45806973,14.9691018 L14.5126639,2.91136353 C16.3290515,1.09497589 19.2721805,1.09497589 21.0886365,2.91136353 C22.9050241,4.72775117 22.9050241,7.67088013 21.0886365,9.48733612 L10.129753,20.4462196 C9.82751152,20.7484611 9.82751152,21.2397572 10.129753,21.5419303 C10.4319944,21.8441717 10.9232905,21.8441717 11.2254636,21.5419303 L22.1843471,10.5830468 C24.6052176,8.1622446 24.6052176,4.2365234 22.1843471,1.81565289 Z" id="Path"></path>
                                        </g>
                                    </g>
                                </g>
                            </g>
                        </g>
                    </g>
                </g>
            </g>
        </g>
    </g>
</svg>