<svg class="soc-icon__face" width="27px" height="27px" xmlns="http://www.w3.org/2000/svg">
            <g stroke="none" stroke-width="1" fill="none" fill-rule="evenodd">
              <g
                transform="translate(-1273.000000, -3042.000000)"
                fill-rule="nonzero"
                stroke="#282A2C"
                stroke-width="1.4"
              >
                <g transform="translate(576.000000, 2866.000000)">
                  <g transform="translate(1.000000, 172.000000)">
                    <g transform="translate(648.000000, 5.000000)">
                      <g transform="translate(49.000000, 0.000000)">
                        <path
                          d="M12.5051165,0.00511646587 C5.60154598,0.00511646587 0.00511646586,5.60154598 0.00511646586,12.5051165 C0.00511646586,19.4086869 5.60154598,25.0051165 12.5051165,25.0051165 C12.5945593,25.0051165 12.6836004,25.0036098 12.7725912,25.0017517 L12.7725912,16.7605564 L10.0042326,16.7605564 L10.0042326,13.3001081 L12.7725912,13.3001081 L12.7725912,11.2238391 C12.7725912,8.37311873 14.3817085,6.37921149 16.9251794,6.37921149 C18.1432793,6.37921149 19.0014484,6.37921149 19.693538,6.37921149 L19.693538,9.83965978 L18.3093587,9.83965978 C16.9265353,9.83965978 16.2330897,10.5317494 16.2330897,11.9159288 L16.2330897,13.3001081 L19.693538,13.3001081 L19.0014484,16.7605564 L16.2330897,16.7605564 L16.2330897,24.4396831 C21.315813,22.8536171 25.0051165,18.1102844 25.0051165,12.5051165 C25.0051165,5.60154598 19.4086869,0.00511646587 12.5051165,0.00511646587 Z"
                        ></path>
                      </g>
                    </g>
                  </g>
                </g>
              </g>
            </g>
          </svg>