
<svg width="136px" height="300px" viewBox="0 0 136 300" version="1.1" xmlns="http://www.w3.org/2000/svg" xmlns:xlink="http://www.w3.org/1999/xlink">
    <defs>
        <path d="M8.95,3.481 C9.508,5.783 8.107,8.102 5.828,8.664 C3.55,9.226 1.249,7.818 0.688,5.516 C0.13,3.219 1.533,0.896 3.808,0.334 C6.095,-0.229 8.395,1.183 8.95,3.481 Z" id="path-1"></path>
        <path d="M5.19,25.277 C-1.73,18.3 -1.73,6.978 5.19,0 L30.252,25.277 C23.331,32.26 12.111,32.26 5.19,25.277 Z" id="path-3"></path>
        <linearGradient x1="49.9995051%" y1="67.5117987%" x2="49.9995051%" y2="96.9060715%" id="linearGradient-5">
            <stop stop-color="#EFCAA0" offset="0%"></stop>
            <stop stop-color="#F9D8A4" offset="100%"></stop>
        </linearGradient>
        <linearGradient x1="4.01713192%" y1="3.71164817%" x2="61.5886327%" y2="61.666864%" id="linearGradient-6">
            <stop stop-color="#EFA481" offset="0%"></stop>
            <stop stop-color="#F9D8A4" offset="100%"></stop>
        </linearGradient>
    </defs>
    <g id="Page-1" stroke="none" stroke-width="1" fill="none" fill-rule="evenodd">
        <g id="ПОДБОРКИ" transform="translate(-397.000000, -2078.000000)">
            <g id="Group-4" transform="translate(-45.000000, 2078.000000)">
                <g id="Подписка">
                    <g id="Group-27" transform="translate(442.000000, 0.500000)">
                        <g id="Group-2">
                            <g id="cover">
                                <g id="Group" transform="translate(0.000000, 74.000000)">
                                    <path d="M100.034,3.013 C100.693,3.766 101.829,3.835 102.571,3.166 C103.313,2.497 103.381,1.344 102.722,0.59 L100.034,3.013 Z" id="Path" fill="#1F3B68"></path>
                                    <g transform="translate(56.000000, 206.000000)" fill="#BC0C0C" id="Path">
                                        <path d="M18.856,0.662 C8.833,0.662 0.706,8.861 0.706,18.976 L37.015,18.976 C37.011,8.861 28.884,0.662 18.856,0.662 Z"></path>
                                        <polygon points="18.543 0.662 3.724 0.662 0.389 18.979 18.543 18.979"></polygon>
                                    </g>
                                    <g transform="translate(99.000000, 206.000000)" fill="#BC0C0C" id="Path">
                                        <path d="M18.767,0.662 C8.739,0.662 0.61,8.861 0.61,18.976 L36.922,18.976 C36.919,8.861 28.793,0.662 18.767,0.662 Z"></path>
                                        <polygon points="18.453 0.662 3.631 0.662 0.297 18.979 18.453 18.979"></polygon>
                                    </g>
                                    <path d="M76.584,210.528 L61.66,208.699 C66.66,167.208 68.841,149.184 61.877,128.343 C59.56,121.41 60.349,115.459 60.981,110.677 C61.242,108.74 61.481,106.911 61.481,105.28 L76.514,105.28 C76.514,107.924 76.193,110.346 75.883,112.687 C75.347,116.725 74.924,119.916 76.121,123.498 C84.736,149.279 81.325,171.184 76.584,210.528 Z" id="Path" fill="#F9D8A4"></path>
                                    <path d="M119.631,210.422 L104.683,208.811 C109.162,166.598 108.102,143.824 101.012,122.607 C98.371,114.708 98.451,108.12 98.523,102.31 C98.538,101.389 98.545,100.473 98.545,99.548 L113.579,99.548 C113.579,100.536 113.564,101.515 113.555,102.493 C113.493,107.763 113.436,112.31 115.257,117.764 C122.98,140.868 124.396,165.469 119.631,210.422 Z" id="Path" fill="#F9D8A4"></path>
                                    <path d="M82.684,204.415 L61.496,202.234 C64.412,173.427 67.685,150.006 60.788,129.354 C58.234,121.721 59.117,115.097 59.758,110.257 C60.012,108.353 60.23,106.702 60.23,105.28 L81.527,105.28 C81.527,108.134 81.177,110.776 80.872,113.105 C80.317,117.255 80.054,119.739 80.974,122.488 C89.095,146.81 85.881,172.827 82.684,204.415 Z" id="Path" fill="#4A639D"></path>
                                    <path d="M125.539,204.121 L104.3,202.524 C106.645,170.79 107.064,144.979 99.922,123.616 C97.11,115.207 97.193,108.338 97.269,102.268 C97.281,101.363 97.292,100.456 97.292,99.545 L118.589,99.545 C118.589,100.543 118.577,101.539 118.565,102.53 C118.503,107.714 118.456,111.81 120.104,116.75 C128.172,140.891 128.1,169.47 125.539,204.121 Z" id="Path" fill="#4A639D"></path>
                                    <path d="M124.521,88.463 C125,95.397 119.771,101.466 112.898,101.954 L63.854,105.426 C56.981,105.91 50.959,100.637 50.48,93.702 L45.439,21.214 C44.958,14.282 50.188,8.209 57.061,7.723 L106.106,4.253 C112.979,3.766 118.996,9.041 119.479,15.975 L124.521,88.463 Z" id="Path" fill="#1F3B68"></path>
                                    <polygon id="Path" fill="#4A639D" points="71.506 127.482 114.078 121.663 108.254 103.053 71.506 103.053"></polygon>
                                    <path d="M89.92,0.735 C79.649,0.735 72.3,2.544 67.072,4.949 C63.906,6.406 60.888,13.688 60.888,24.071 L56.392,113.683 L120,109.85 L121.146,24.072 C121.146,5.803 113.718,0.735 89.92,0.735 Z" id="Path" fill="#111123"></path>
                                    <path d="M67.072,4.95 C67.072,4.95 63.887,6.237 59.371,9.726 C25.403,35.967 30.698,70.906 39.693,107.361 C40.757,111.672 44.589,114.553 48.803,114.553 C49.554,114.553 50.318,114.461 51.084,114.274 C56.121,113.008 59.186,107.863 57.933,102.783 C48.867,66.041 48.033,44.851 67.506,27.496 C75.917,20 72.795,10.71 67.072,4.95 Z" id="Path" fill="#191438"></path>
                                    <path d="M60.167,97.251 L60.161,84.614 C66.671,84.438 100.97,57.794 102.478,9.532 L115,9.934 C114.08,39.287 102.479,60.509 92.913,73.141 C82.163,87.332 68.696,97.251 60.167,97.251 Z" id="Path" fill="#000000"></path>
                                    <path d="M56.993,94.012 L56.993,81.374 C59.67,81.372 70.593,75.426 81.743,60.705 C90.83,48.707 101.847,28.537 102.722,0.59 L115.143,3.42 C114.163,34.719 101.893,54.914 91.69,68.385 C80.264,83.472 65.994,94.012 56.993,94.012 Z" id="Path" fill="#355797"></path>
                                    <g transform="translate(27.000000, 103.000000)" id="Path">
                                        <path d="M53.273,37.214 L51.142,32.088 L44.217,2.286 C44.133,1.926 43.896,1.622 43.567,1.456 C43.238,1.283 42.854,1.265 42.513,1.416 L4.575,17.454 C1.37,18.809 -0.149,22.544 1.194,25.774 L13.019,54.234 C13.147,54.544 13.393,54.79 13.704,54.915 C13.852,54.978 14.016,55.011 14.179,55.011 C14.344,55.011 14.509,54.979 14.663,54.909 L22.519,51.586 L52.597,38.87 C52.907,38.735 53.146,38.493 53.272,38.18 C53.403,37.87 53.401,37.523 53.273,37.214 Z" fill="#0D685F"></path>
                                        <g transform="translate(38.000000, 0.000000)">
                                            <path d="M14.572,38.881 L2.296,9.242 C1.217,6.645 2.428,3.663 5.001,2.575 C7.569,1.487 10.528,2.708 11.606,5.304 L24.023,34.881" fill="#C5E3EA"></path>
                                            <path d="M13.447,39.355 L1.136,9.733 C0.486,8.166 0.478,6.436 1.115,4.866 C1.752,3.293 2.958,2.068 4.511,1.414 C6.064,0.759 7.777,0.751 9.334,1.393 C10.892,2.039 12.105,3.255 12.759,4.819 L25.07,34.442 L22.759,35.421 L10.446,5.798 C10.053,4.852 9.323,4.126 8.384,3.737 C7.445,3.346 6.415,3.352 5.478,3.749 C4.542,4.147 3.816,4.884 3.432,5.832 C3.048,6.782 3.052,7.821 3.444,8.762 L15.756,38.387 L13.447,39.355 Z" fill="#08514A"></path>
                                        </g>
                                    </g>
                                    <path d="M58.221,104.281 L39.733,108.372 L41.79,117.818 C42.975,122.952 48.061,126.145 53.15,124.952 C58.165,123.775 61.297,118.782 60.265,113.727 L60.275,113.725 L58.221,104.281 Z" id="Path" fill="#F9D8A4"></path>
                                    <path d="M126.389,75.793 C123.831,75.793 121.305,74.744 119.472,72.736 L102.175,53.781 C98.661,49.929 98.905,43.932 102.724,40.386 C104.087,39.121 105.721,38.342 107.417,38.032 C105.273,30.587 103.272,22.851 101.978,16.098 C100.995,10.959 104.319,5.985 109.416,4.989 C114.511,4.004 119.437,7.352 120.43,12.49 C124.239,32.295 135.118,62.791 135.226,63.099 C136.747,67.343 135.086,72.081 131.259,74.42 C129.746,75.343 128.061,75.793 126.389,75.793 Z" id="Path" fill="#191438"></path>
                                    <path d="M108.436,37.274 L96.644,33.004 C100.332,22.656 102.373,11.749 102.722,0.589 L115.143,3.419 C114.753,15.903 112.563,25.679 108.436,37.274 Z" id="Path" fill="#355797"></path>
                                    <g transform="translate(108.000000, 19.000000)">
                                        <g>
                                            <path d="M8.95,3.481 C9.508,5.783 8.107,8.102 5.828,8.664 C3.55,9.226 1.249,7.818 0.688,5.516 C0.13,3.219 1.533,0.896 3.808,0.334 C6.095,-0.229 8.395,1.183 8.95,3.481 Z" id="Path" fill="#DBDAD5"></path>
                                            <g id="Clipped">
                                                <mask id="mask-2" fill="white">
                                                    <use xlink:href="#path-1"></use>
                                                </mask>
                                                <g id="SVGID_1_"></g>
                                                <polygon id="Path" fill="#000000" mask="url(#mask-2)" points="7.734 3.781 4.24 2.211 4.6 3.698 -1.757 2.168 0.049 9.627 4.989 5.313 5.351 6.801"></polygon>
                                            </g>
                                        </g>
                                        <ellipse id="Oval" fill="#FFFFFF" cx="2.744" cy="2.404" rx="1" ry="1"></ellipse>
                                    </g>
                                    <g transform="translate(97.000000, 7.000000)" id="Path">
                                        <path d="M8.856,5.875 C8.377,8.194 6.126,9.681 3.822,9.195 C1.527,8.712 0.051,6.44 0.537,4.121 C1.016,1.803 3.266,0.315 5.562,0.8 C7.862,1.286 9.335,3.56 8.856,5.875 Z" fill="#F8DA02"></path>
                                        <polygon fill="#D92355" points="5.237 2.378 5.655 4.015 7.229 4.592 5.814 5.5 5.753 7.19 4.463 6.114 2.854 6.577 3.468 5.008 2.533 3.603 4.204 3.709"></polygon>
                                        <path d="M3.526,2.902 C3.526,3.416 3.114,3.833 2.606,3.833 C2.094,3.833 1.683,3.416 1.683,2.902 C1.683,2.388 2.094,1.972 2.606,1.972 C3.115,1.974 3.526,2.389 3.526,2.902 Z" fill="#FFFFFF"></path>
                                    </g>
                                    <g transform="translate(85.000000, 48.000000)" id="Path">
                                        <path d="M8.603,3.428 C9.176,5.724 7.793,8.054 5.515,8.633 C3.239,9.209 0.93,7.813 0.357,5.518 C-0.209,3.219 1.17,0.892 3.445,0.314 C5.723,-0.265 8.033,1.129 8.603,3.428 Z" fill="#000000"></path>
                                        <polygon fill="#D92355" points="4.82 1.383 2.605 5.887 4.514 5.019 4.113 7.569 6.361 3.082 4.453 3.877"></polygon>
                                        <path d="M3.337,2.375 C3.337,2.89 2.926,3.306 2.418,3.306 C1.902,3.306 1.495,2.89 1.495,2.375 C1.495,1.861 1.902,1.445 2.418,1.445 C2.926,1.446 3.337,1.861 3.337,2.375 Z" fill="#FFFFFF"></path>
                                    </g>
                                    <polygon id="Path" fill="#0D685F" points="65.334 120.094 58.623 122.941 55.588 110.35 60.419 108.302"></polygon>
                                    <polygon id="Path" fill="#324977" points="83.319 197.323 62.133 195.429 61.395 202.272 82.64 204.432"></polygon>
                                    <polygon id="Path" fill="#324977" points="126.257 197.006 104.721 195.429 104.332 202.48 125.579 204.115"></polygon>
                                    <polygon id="Path" fill="#BC0C0C" points="83.319 216.911 61.395 216.911 66.301 212.33 76.957 206.787"></polygon>
                                    <polygon id="Path" fill="#BC0C0C" points="126.384 216.911 104.459 216.911 109.365 212.33 120.021 206.787"></polygon>
                                    <polyline id="Path" fill="#355797" points="101.977 25.534 97.442 30.549 108.983 36.197 111.333 28.3"></polyline>
                                    <path d="M112.69,38.599 L105.761,30.453 C103.654,28.031 99.896,27.881 97.368,30.119 L93.217,33.789 C90.688,36.028 90.345,39.804 92.453,42.228 L99.38,50.376" id="Path" fill="#F9D8A4"></path>
                                    <polygon id="Path" fill="#000000" points="101.751 53.366 99.25 50.533 112.664 38.476 115.165 41.307"></polygon>
                                    <path d="M113.128,43.701 C112.644,41.619 110.576,40.333 108.513,40.823 C106.451,41.313 105.173,43.399 105.66,45.479 C106.143,47.56 108.214,48.848 110.273,48.357 C112.338,47.867 113.615,45.78 113.128,43.701 Z" id="Path" fill="#FFFFFF"></path>
                                    <path d="M77.798,191.483 C80.094,191.483 81.951,193.359 81.951,195.672 L81.951,217.769 C84.416,219.217 86.077,221.905 86.077,224.986 L77.927,224.986 C77.883,224.988 77.842,225 77.798,225 C75.505,225 73.648,223.125 73.648,220.81 L70.328,195.675 C70.323,193.359 75.505,191.483 77.798,191.483 Z" id="Path" fill="#753A2E"></path>
                                    <path d="M56.462,193 C56.462,202.046 50.191,209.604 41.799,211.514 L39.305,218.026 C41.768,219.473 43.426,222.16 43.426,225.238 L35.281,225.238 C35.237,225.238 35.194,225.253 35.15,225.253 C32.854,225.253 31,223.377 31,221.064 L33.491,193.003 C35.006,193 56.462,193 56.462,193 Z" id="Path" fill="#592B26"></path>
                                    <path d="M78.4730006,191 C80.7650006,191 82.6260006,192.876 82.6260006,195.189 L82.6260006,217.286 C85.0910006,218.734 86.7520006,221.422 86.7520006,224.503 L78.6000006,224.503 C78.5580006,224.505 78.5170006,224.517 78.4730006,224.517 C76.1800006,224.517 74.3220006,222.642 74.3220006,220.327 L71.0000006,195.192 C70.9980006,192.876 76.1800006,191 78.4730006,191 Z" id="Path" fill="#592B26"></path>
                                    <path d="M56.705,191.483 C56.705,181.612 64.639,173.61 74.426,173.61 C84.211,173.61 92.148,181.612 92.148,191.483 C92.148,201.352 84.211,209.358 74.426,209.358 C64.639,209.358 56.705,201.353 56.705,191.483 Z" id="Path" fill="#753A2E"></path>
                                    <path d="M18.801,192.904 C19.12,189.292 19.987,179.582 19.987,179.582 L74.917,174 L74.917,209.746 L37.44,201.677 C34.942,206.659 30.336,210.391 24.799,211.649 L22.307,218.16 C24.768,219.606 26.427,222.294 26.427,225.373 L18.282,225.373 C18.237,225.373 18.197,225.387 18.152,225.387 C15.857,225.387 14,223.512 14,221.198 L15.952,199.206 C15.954,199.202 18.478,196.514 18.801,192.904 Z" id="Path" fill="#753A2E"></path>
                                    <path d="M69.86575,147.967 C66.04475,144.113 66.04475,137.859 69.86575,134 L83.71675,147.967 C79.88975,151.825 73.68975,151.825 69.86575,147.967 Z" id="Path" fill="#753A2E"></path>
                                    <path d="M55.868,151.966 C52.044,148.109 52.044,141.857 55.868,138 L69.717,151.966 C65.891,155.822 59.691,155.822 55.868,151.966 Z" id="Path" fill="#753A2E"></path>
                                    <path d="M86.943,199.079 C85.435,197.559 85.432,195.092 86.943,193.572 L92.406,199.079 C90.896,200.603 88.45,200.603 86.943,199.079 Z" id="Path" fill="#753A2E"></path>
                                    <path d="M88.238,196.373 C86.731,194.85 86.731,192.386 88.238,190.862 L93.704,196.373 C92.191,197.895 89.745,197.895 88.238,196.373 Z" id="Path" fill="#753A2E"></path>
                                    <path d="M89.532,193.669 C88.021,192.144 88.021,189.682 89.532,188.16 L94.993,193.669 C93.486,195.188 91.041,195.188 89.532,193.669 Z" id="Path" fill="#753A2E"></path>
                                    <polygon id="Path" fill="#753A2E" points="35.11 192.747 92.146 192.747 92.146 173.61 35.11 187.154"></polygon>
                                    <path d="M98.242,182.525 C82.72,184.829 68.283,174.008 66,158.351 L122.21,150 C124.491,165.655 113.762,180.22 98.242,182.525 Z" id="Path" fill="#753A2E"></path>
                                    <polygon id="Path" fill="#753A2E" points="98.242 182.349 70.136 186.523 66 158.172 94.103 154"></polygon>
                                    <path d="M83.2065473,179.082 C77.6855473,177.977 74.1025473,172.567 75.1965473,167 L95.1805473,171.002 C94.0875473,176.571 88.7235473,180.187 83.2065473,179.082 Z" id="Path" fill="#FFFFFF"></path>
                                    <path d="M90.6375296,156.580727 C89.3915296,156.778727 88.2225296,155.922727 88.0275296,154.666727 C87.8335296,153.408727 88.6855296,152.228727 89.9315296,152.028727 C91.1785296,151.829727 92.3475296,152.685727 92.5415296,153.942727 C92.7365296,155.199727 91.8845296,156.380727 90.6375296,156.580727 Z" id="Path" fill="#000000"></path>
                                    <ellipse id="Oval" fill="#000000" cx="73.283" cy="157.31" rx="2.283" ry="2.31"></ellipse>
                                    <path d="M112,151.659 L123.161,150 C123.73,153.911 123.488,157.76 122.557,161.358 C117.158,161.077 112.767,156.967 112,151.659 Z" id="Path" fill="#000000"></path>
                                    <path d="M69.759,224.503 C69.759,221.422 68.094,218.732 65.629,217.286 L65.629,195.189 C65.629,192.876 63.772,191 61.478,191 C59.184,191 54,192.876 54,195.189 L57.321,220.324 C57.321,222.637 59.177,224.513 61.472,224.513 C61.516,224.513 61.558,224.5 61.602,224.5 L69.759,224.503 Z" id="Path" fill="#753A2E"></path>
                                    <g transform="translate(0.000000, 155.000000)">
                                        <path d="M5.238,25.537 C-1.682,18.56 -1.682,7.238 5.238,0.26 L30.3,25.537 C23.379,32.52 12.159,32.52 5.238,25.537 Z" id="Path" fill="#753A2E"></path>
                                        <g id="Clipped" transform="translate(1.000000, 0.000000)">
                                            <mask id="mask-4" fill="white">
                                                <use xlink:href="#path-3"></use>
                                            </mask>
                                            <g id="SVGID_4_"></g>
                                            <g id="Group" mask="url(#mask-4)" fill="#542118">
                                                <g transform="translate(2.000000, 16.000000)" id="Path">
                                                    <path d="M4.41373422,17.9044539 C4.37473422,17.9044539 4.33573422,17.8974539 4.29773422,17.8874539 C4.07573422,17.8214539 3.94873422,17.5844539 4.01973422,17.3604539 L7.83173422,4.29845391 C7.89673422,4.07645391 8.12873422,3.95345391 8.35173422,4.01645391 C8.57273422,4.08045391 8.69973422,4.31645391 8.62873422,4.53845391 L4.81573422,17.6024539 C4.75973422,17.7854539 4.59573422,17.9044539 4.41373422,17.9044539 Z"></path>
                                                    <path d="M8.41418075,22.9000634 C8.37618075,22.9000634 8.33718075,22.8940634 8.29818075,22.8820634 C8.07718075,22.8180634 7.95218075,22.5830634 8.01718075,22.3590634 L11.8301808,9.30006339 C11.8931808,9.07606339 12.1281808,8.95106339 12.3471808,9.01806339 C12.5711808,9.08206339 12.6971808,9.31606339 12.6281808,9.53906339 L8.81618075,22.5990634 C8.76018075,22.7840634 8.59418075,22.9000634 8.41418075,22.9000634 Z"></path>
                                                    <path d="M0.414994004,13.9065923 C0.375994004,13.9065923 0.336994004,13.8985923 0.297994004,13.8855923 C0.0769940038,13.8225923 -0.0490059962,13.5865923 0.0179940038,13.3625923 L3.829994,0.301592337 C3.891994,0.0745923374 4.125994,-0.0464076626 4.347994,0.0165923374 C4.568994,0.0805923374 4.693994,0.315592337 4.627994,0.539592337 L0.814994004,13.6015923 C0.759994004,13.7855923 0.594994004,13.9065923 0.414994004,13.9065923 Z"></path>
                                                </g>
                                            </g>
                                        </g>
                                    </g>
                                    <path d="M90.229,199.923 C91.145,199.871 92.044,199.508 92.75,198.804 L91.368,197.413 C91.389,197.35 91.412,197.288 91.433,197.223 C92.38,197.193 93.318,196.82 94.039,196.098 L92.476,194.517 C93.505,194.549 94.548,194.184 95.332,193.392 L92.48,190.52 L92.48,183 C92.48,183 89.418,192.983 82.688,199.773 C75.958,206.563 68,207.698 68,207.698 C70.088,208.573 72.359,209.079 74.764,209.079 C81.409,209.083 87.194,205.384 90.229,199.923 Z" id="Path" fill="#000000" opacity="0.15"></path>
                                </g>
                                <g id="Group" transform="translate(59.000000, 0.000000)">
                                    <path d="M60.656,11.148 C59.16,4.42 53.131,-0.127 46.496,0.003 L34.777,0 L41.476,30.002 L49.85,28.139 C57.526,26.432 62.365,18.825 60.656,11.148 Z" id="Path" fill="#111123"></path>
                                    <g transform="translate(19.000000, 56.000000)" fill="url(#linearGradient-5)">
                                        <path d="M20.335,10.839 C20.335,5.3 15.813,0.807 10.231,0.807 C4.652,0.807 0.13,5.299 0.13,10.839 L0.13,18.956 C0.13,24.496 4.651,28.988 10.231,28.988 C15.81,28.988 20.335,24.497 20.335,18.956 L20.335,10.839 Z" id="Path"></path>
                                        <path d="M20.335,10.839 C20.335,5.3 15.813,0.807 10.231,0.807 C4.652,0.807 0.13,5.299 0.13,10.839 L0.13,18.956 C0.13,24.496 4.651,28.988 10.231,28.988 C15.81,28.988 20.335,24.497 20.335,18.956 L20.335,10.839 Z" id="SVGID_2_"></path>
                                    </g>
                                    <path d="M52.78,52.747 C51.009,54.51 48.134,54.51 46.357,52.747 C44.586,50.987 44.586,48.13 46.357,46.37 L51.728,41.038 C53.502,39.274 56.377,39.274 58.151,41.038 C59.925,42.799 59.925,45.655 58.151,47.414 L52.78,52.747 Z" id="Path" fill="#EFCAA0"></path>
                                    <path d="M7.154,17.457 L7.154,50.508 C7.154,63.221 17.531,73.527 30.334,73.527 C43.134,73.527 53.51,63.22 53.51,50.508 L50.378,17.457 L7.154,17.457 Z" id="Path" fill="#F9D8A4"></path>
                                    <path d="M14.565,26.418 C16.104,27.946 18.599,27.946 20.138,26.418 L14.565,20.882 C13.026,22.412 13.026,24.893 14.565,26.418 Z" id="Path" fill="#111123"></path>
                                    <path d="M40.089,50.29 C39.808,50.387 39.506,50.436 39.191,50.425 C34.962,50.283 32.559,44.91 32.646,42.295 C32.677,41.447 33.396,40.785 34.246,40.816 C35.099,40.843 35.766,41.553 35.733,42.399 C35.704,43.326 37.86,45.459 39.358,45.509 C40.725,45.556 41.796,46.692 41.754,48.052 C41.713,49.093 41.027,49.964 40.089,50.29 Z" id="Path" fill="#EFA481"></path>
                                    <path d="M43.844,24.221 C43.844,24.221 26.485,24.221 23.91,24.221 C21.331,24.221 15.269,24.221 15.269,24.221 L12.475,43.663 L5.585,43.663 C5.585,43.663 3.706,22.978 3.706,18.273 C3.706,10.435 10.102,4.081 17.996,4.081 C24.3,4.081 43.844,4.081 43.844,4.081 L43.844,24.221 Z" id="Path" fill="#111123"></path>
                                    <path d="M13.521,46.37 C15.293,48.131 15.293,50.989 13.521,52.747 C11.75,54.51 8.875,54.51 7.098,52.747 L1.727,47.414 C-0.044,45.653 -0.044,42.797 1.727,41.038 C3.501,39.274 6.376,39.274 8.15,41.038 L13.521,46.37 Z" id="Path" fill="#F9D8A4"></path>
                                    <path d="M14.012,50.497 C16.097,52.571 16.769,55.267 15.51,56.518 C14.248,57.768 11.535,57.101 9.447,55.028 L3.129,48.751 C1.043,46.678 0.372,43.982 1.629,42.731 C2.892,41.479 5.603,42.145 7.691,44.218 L14.012,50.497 Z" id="Path" fill="url(#linearGradient-6)"></path>
                                    <ellipse id="Oval" fill="#000000" cx="43.172" cy="39.074" rx="2.036" ry="2.022"></ellipse>
                                    <ellipse id="Oval" fill="#000000" cx="24.771" cy="39.074" rx="2.036" ry="2.022"></ellipse>
                                    <path d="M31.025,63.343 C35.143,64.454 39.386,62.042 40.507,57.955 L25.601,53.924 C24.48,58.013 26.91,62.229 31.025,63.343 Z" id="Path" fill="#FFFFFF"></path>
                                    <circle id="Oval" fill="#EFA481" cx="18.028" cy="46.891" r="1.247"></circle>
                                    <circle id="Oval" fill="#EFA481" cx="23.979" cy="46.891" r="1.248"></circle>
                                    <circle id="Oval" fill="#EFA481" cx="21.16" cy="50.314" r="1.248"></circle>
                                    <path d="M30.971,11.348 C30.971,18.458 36.735,24.221 43.844,24.221 C50.953,24.221 56.717,18.458 56.717,11.348 L30.971,11.348 Z" id="Path" fill="#111123"></path>
                                </g>
                            </g>
                        </g>
                    </g>
                </g>
            </g>
        </g>
    </g>
</svg>