<svg width="29px" height="24px" xmlns="http://www.w3.org/2000/svg">
            <g stroke="none" stroke-width="1" fill="none" fill-rule="evenodd">
              <g
                transform="translate(-1314.000000, -3044.000000)"
                fill="#282A2C"
                fill-rule="nonzero"
                stroke="#282A2C"
                stroke-width="0.2"
              >
                <g transform="translate(576.000000, 2866.000000)">
                  <g transform="translate(1.000000, 172.000000)">
                    <g transform="translate(648.000000, 5.000000)">
                      <g transform="translate(90.000000, 2.000000)">
                        <path
                          d="M26.7769336,2.78379492 C26.5702148,2.53757812 26.2547051,2.41686914 25.9453652,2.44850977 C26.0690273,2.19248437 26.1749707,1.92691406 26.2626152,1.65269531 C26.3827969,1.27685742 26.2561289,0.859253906 25.947791,0.613880859 C25.6393477,0.368033203 25.2040781,0.337974609 24.8643633,0.539208984 C24.0861094,1.00079297 23.2507441,1.34535937 22.3775684,1.56515625 C21.2683008,0.585615234 19.808666,0.029109375 18.3265137,0.029109375 C14.9612168,0.029109375 12.2233008,2.76691992 12.2233008,6.13211133 C12.2233008,6.16976367 12.2236172,6.20741602 12.2243027,6.24506836 C8.8070625,5.781375 5.63508984,4.01060742 3.4443457,1.32326367 C3.24580078,1.07973633 2.94052148,0.948902344 2.62870312,0.974320313 C2.31619922,0.998789062 2.03538867,1.17508008 1.87734375,1.44597656 C1.33639453,2.37425977 1.05046875,3.43548633 1.05046875,4.51506445 C1.05046875,5.46713086 1.27290234,6.39979102 1.69092773,7.23984961 C1.62131836,7.26057422 1.55371289,7.28920898 1.48958789,7.32601758 C1.20076172,7.49149805 1.01671875,7.80099609 1.009125,8.13280078 C1.00843945,8.16185742 1.00838672,8.19091406 1.00838672,8.22028711 C1.00838672,9.95408789 1.76080078,11.6040937 3.02742773,12.7519102 C2.824875,13.0009219 2.75995898,13.3402676 2.85836133,13.6471289 C3.38285742,15.2846895 4.58098242,16.6142285 6.11217773,17.3240859 C4.89090234,17.8850215 3.55329492,18.1775391 2.18452148,18.1775391 C1.8108457,18.1775391 1.43548242,18.1556016 1.06934766,18.1122539 C0.624322266,18.0593086 0.207878906,18.317127 0.0567421875,18.7392656 C-0.0942363281,19.1611406 0.063703125,19.624623 0.440753906,19.8663574 C2.95470703,21.4782363 5.86147852,22.3302129 8.84682422,22.3302129 C14.7137344,22.3302129 18.3877383,19.5591797 20.436627,17.2344375 C22.9857012,14.3426953 24.4476035,10.5136523 24.4476035,6.72916992 C24.4476035,6.66246094 24.4471816,6.59538281 24.4463379,6.52819922 C25.3731973,5.79371484 26.177502,4.92085547 26.8397402,3.93024023 C27.0748828,3.57855469 27.0488848,3.10695117 26.7769336,2.78379492 Z M23.5791738,5.83917187 C23.4396914,5.94427148 23.3599043,6.1105957 23.3652305,6.28509375 C23.3697656,6.43269727 23.3720332,6.58214648 23.3720332,6.72938086 C23.3720332,10.2555703 22.0080059,13.8253711 19.6297383,16.5233672 C17.7273457,18.6816797 14.3123203,21.2544844 8.84687695,21.2544844 C6.23784375,21.2544844 3.69314648,20.5553848 1.45504687,19.2282715 C1.69741406,19.2449355 1.94136328,19.2533203 2.18473242,19.2533203 C4.15995117,19.2533203 6.0785332,18.7055684 7.73307422,17.6692852 C7.91775,17.5535332 8.01441211,17.3377441 7.97776172,17.1229043 C7.94100586,16.9080117 7.77826758,16.7365723 7.56558984,16.6886895 C5.90018555,16.3140645 4.53056836,15.1040215 3.94758984,13.5076465 C4.03729102,13.521252 4.12751953,13.5325898 4.21732617,13.5416074 C4.46781445,13.5661816 4.70258789,13.4142012 4.78153125,13.1748926 C4.86047461,12.9355313 4.76265234,12.6734941 4.54623047,12.5444004 C3.06650391,11.6619434 2.13294727,10.0660957 2.08611914,8.35523438 C2.29626562,8.46138867 2.514375,8.55383203 2.73691406,8.63092969 C2.96615039,8.71029492 3.22011914,8.6265 3.35696484,8.42621484 C3.49391602,8.22598242 3.47983594,7.95893555 3.32263477,7.7741543 C2.55118359,6.86728125 2.12635547,5.70991992 2.12635547,4.51522266 C2.12635547,3.68370703 2.33201953,2.86574414 2.72257031,2.13853711 C5.22718945,5.13606445 8.87535352,7.04610352 12.759873,7.38713672 C12.922084,7.4012168 13.0818164,7.34146875 13.1946152,7.22413477 C13.3074141,7.10680078 13.3609922,6.94464258 13.340373,6.78327539 C13.3130039,6.56891016 13.2991348,6.34985156 13.2991348,6.13232227 C13.2991348,3.36028711 15.5544785,1.10504883 18.3266191,1.10504883 C19.6304766,1.10504883 20.9133457,1.62785742 21.8461641,2.53931836 C21.9758906,2.66603906 22.1607246,2.71903711 22.3378066,2.67985547 C23.3159238,2.46433008 24.2541738,2.11027148 25.1314102,1.62585352 C24.9178887,2.17249805 24.6118184,2.67294727 24.2189473,3.11723437 C24.0604277,3.29647852 24.0393867,3.5589375 24.167373,3.76117383 C24.2953066,3.96341016 24.5416289,4.05685547 24.7713398,3.99025195 C25.0886953,3.89849414 25.4033613,3.79086328 25.7110137,3.66899414 C25.1095254,4.49660742 24.3938672,5.22534375 23.5791738,5.83917187 Z"
                        ></path>
                      </g>
                    </g>
                  </g>
                </g>
              </g>
            </g>
          </svg>