
<svg width="76px" height="71px" viewBox="0 0 76 71" version="1.1" xmlns="http://www.w3.org/2000/svg" xmlns:xlink="http://www.w3.org/1999/xlink">
    <defs>
        <polygon id="path-1" points="0.1514 0.7551 58.1454 0.7551 58.1454 30 0.1514 30"></polygon>
    </defs>
    <g id="Page-1" stroke="none" stroke-width="1" fill="none" fill-rule="evenodd">
        <g id="ГЛАВНАЯ" transform="translate(-376.000000, -55.000000)">
            <g id="Меню" transform="translate(374.000000, 20.000000)">
                <g id="Проект" transform="translate(0.000000, 33.000000)">
                    <g id="Group-136" transform="translate(2.000000, 2.000000)">
                        <path d="M63.5265,41.1407 C63.5265,56.8787 50.0185,69.5187 34.4055,69.5187 C18.7915,69.5187 6.7715,56.7547 6.7715,41.1407 C6.7715,25.5277 19.5355,12.7637 35.1485,12.7637 C50.7625,12.7637 63.5265,25.4037 63.5265,41.1407" id="Fill-1" fill="#92D433"></path>
                        <path d="M35.1486,13.3829 C19.9066,13.3829 7.3906,25.7759 7.3906,41.1409 C7.3906,56.6309 19.2876,68.8989 34.4056,68.8989 C49.8956,68.8989 62.9066,56.2589 62.9066,41.1409 C62.9066,25.7759 50.5146,13.3829 35.1486,13.3829 M34.4056,70.1379 C18.5446,70.1379 6.1516,57.3739 6.1516,41.1409 C6.1516,25.1549 19.1636,12.1439 35.1486,12.1439 C51.1336,12.1439 64.1456,25.1549 64.1456,41.1409 C64.1456,48.8239 61.0476,56.1349 55.2236,61.7109 C49.6476,67.1639 42.2116,70.1379 34.4056,70.1379" id="Fill-3" fill="#000104"></path>
                        <path d="M44.8146,54.0284 C44.6906,54.1524 44.5666,54.2764 44.4426,54.6484 C44.3186,55.0194 44.3186,55.3914 44.4426,55.5154 C44.3186,55.5154 43.6996,55.8864 43.5756,55.5154 C43.4516,55.3914 43.4516,53.7804 43.4516,53.7804 L44.8146,54.0284 C44.5666,54.0284 44.4426,54.0284 44.1946,53.9044" id="Fill-5" fill="#5E5E5E"></path>
                        <path d="M35.8927,18.464 C35.8927,18.464 31.5547,15.613 35.5207,13.012 C35.5207,13.259 36.0167,14.622 36.2637,15.242 C36.7597,13.507 38.3707,13.135 38.4947,13.259 C38.4947,13.259 37.5027,15.861 38.3717,16.234 C38.3717,16.234 38.4947,15.366 39.6097,15.118 C39.6097,15.118 38.6187,14.374 40.3537,14.87 C40.3537,14.87 38.4947,16.853 38.8667,17.844 C38.8667,17.968 38.9907,17.968 38.9907,18.092 C39.1147,18.092 37.8747,18.464 35.8927,18.464" id="Fill-7" fill="#95958F"></path>
                        <path d="M48.4083,21.6857 C48.4083,21.6857 49.0273,10.2857 60.6763,7.9307 C60.6763,7.9307 59.5603,8.5497 59.3123,9.2937 C59.3123,9.2937 65.6333,6.5677 71.7053,11.5247 C71.7053,11.5247 69.2263,10.7817 68.7303,11.0287 C68.7303,11.0287 76.5373,16.1097 74.3063,25.6517 C74.3063,25.6517 74.3063,28.6247 73.6873,27.7577 C73.6873,27.7577 73.5633,30.3607 71.4573,31.8467 C71.4573,31.8467 67.8633,40.5217 53.2413,36.9277 C42.0883,34.4497 48.4083,21.6857 48.4083,21.6857" id="Fill-9" fill="#95958F"></path>
                        <path d="M48.4083,21.8097 C48.4083,21.8097 49.0273,10.4097 60.6763,8.0547 C60.6763,8.0547 59.5603,8.6737 59.3123,9.4177 C59.3123,9.4177 65.6333,6.6917 71.7053,11.6487 C71.7053,11.6487 69.2263,10.9047 68.7303,11.1527 C68.7303,11.1527 78.3963,18.0917 73.5633,27.5097 C73.5633,27.5097 73.4393,30.8557 71.3333,32.3427 C71.3333,32.3427 67.9873,40.5217 53.3653,37.0517 C42.0883,34.5737 48.4083,21.8097 48.4083,21.8097" id="Fill-11" fill="#5E5E5D"></path>
                        <path d="M22.757,21.9337 C22.757,21.9337 25.979,11.5247 17.924,7.1877 C17.924,7.1877 18.544,8.0547 18.42,8.6737 C18.42,8.6737 12.967,3.8417 8.135,6.3197 C8.135,6.3197 10.241,6.5677 10.489,6.9397 C10.489,6.9397 1.808,7.5577 1.188,16.2327 C1.188,16.2327 0.575,23.6677 2.682,25.0317 C2.682,25.0317 5.408,30.3607 14.95,32.0947 C24.492,33.8297 22.757,21.9337 22.757,21.9337" id="Fill-13" fill="#95958F"></path>
                        <path d="M21.6417,20.0743 C21.6417,20.0743 20.7747,12.2673 13.9587,10.2853 L14.7027,12.2673 C13.0907,12.2673 11.9757,12.3913 9.7457,14.0033 C7.3907,15.8613 6.2757,17.8443 6.0277,19.4553 C5.6567,21.0663 5.7807,28.2533 14.0827,31.1033 C22.3847,33.9533 21.6417,20.0743 21.6417,20.0743" id="Fill-15" fill="#E7D5DE"></path>
                        <path d="M21.0226,21.8097 C21.0226,21.8097 21.0226,14.2507 13.5866,14.7467 L14.2066,16.4817 C13.4626,16.4817 12.8436,16.7287 12.4716,16.8527 C9.4976,18.2157 8.8776,21.9337 8.8776,22.4287 C8.8776,22.4287 8.3816,28.2527 14.9506,29.6167 C15.5696,29.7407 16.6846,29.8647 17.6756,29.3687 C19.6596,28.3767 22.1376,26.2707 21.0226,21.8097" id="Fill-17" fill="#FFFFFF"></path>
                        <path d="M20.1544,22.4288 C20.1544,22.1818 20.7744,18.0918 16.0654,17.4728 C16.0654,17.4728 16.4364,18.0918 16.8084,18.8358 C16.8084,18.8358 14.7024,18.7118 13.3394,20.6948 C12.4714,21.9338 12.4714,26.3948 16.8084,26.6428 C17.6754,27.0138 20.1544,22.4288 20.1544,22.4288" id="Fill-19" fill="#5E5E5E"></path>
                        <path d="M51.1339,24.5363 C51.1339,24.5363 52.0019,16.7283 58.8179,14.7463 L58.0729,16.7283 C59.6849,16.7283 60.7999,16.8523 63.0299,18.4643 C65.3849,20.3223 66.4999,22.3063 66.7479,23.9163 C67.1199,25.5273 66.9959,32.7153 58.6939,35.5643 C50.3909,38.4153 51.1339,24.5363 51.1339,24.5363" id="Fill-21" fill="#E7D5DE"></path>
                        <path d="M51.754,26.2706 C51.754,26.2706 51.754,18.7116 59.189,19.2076 L58.569,20.9426 C59.313,20.9426 59.933,21.1906 60.305,21.3136 C63.278,22.6766 63.898,26.3946 63.898,26.8906 C63.898,26.8906 64.394,32.7146 57.826,34.0776 C57.206,34.2016 56.091,34.3256 55.1,33.8306 C53.117,32.8376 50.639,30.7316 51.754,26.2706" id="Fill-23" fill="#FFFFFF"></path>
                        <path d="M52.6212,26.8907 C52.6212,26.6427 52.0022,22.5527 56.7112,21.9337 C56.7112,21.9337 56.3392,22.5527 55.9672,23.2967 C55.9672,23.2967 58.0732,23.1727 59.4362,25.1557 C60.3052,26.3947 60.3052,30.8557 55.9672,31.1037 C55.1002,31.4757 52.6212,26.8907 52.6212,26.8907" id="Fill-25" fill="#5E5E5E"></path>
                        <path d="M13.339,39.4044 C13.339,39.4044 11.976,50.3094 26.97,51.6734 C44.443,53.2834 48.656,53.7794 52.249,49.4414 C54.233,47.0884 60.8,27.7564 49.276,20.9404 C46.549,19.5774 42.212,18.5864 39.362,18.0914 C37.751,17.8424 37.503,18.0914 36.017,17.8424 C27.962,16.8514 22.138,18.5864 20.899,19.8254 C18.915,22.0554 13.587,34.3244 13.339,39.4044" id="Fill-27" fill="#95958F"></path>
                        <path d="M23.8722,50.6827 C41.3452,52.7887 48.6562,53.4097 52.2492,49.0717 C54.2322,46.7167 62.6582,23.1727 44.5662,19.2067 C44.5662,19.2067 56.3392,26.2707 51.5062,41.7607 C47.2932,54.2767 23.8722,50.6827 23.8722,50.6827" id="Fill-29" fill="#5E5E5E"></path>
                        <path d="M15.1984,45.9738 C16.0654,48.2038 17.8004,50.5588 29.0774,51.9218 C37.6274,53.0368 44.5664,53.0368 47.9124,50.6828 C51.7544,47.8318 51.8784,38.2908 45.8054,35.4408 C39.7334,32.5908 26.7224,30.1128 18.7914,36.1848 C15.5694,38.5388 14.2064,42.9998 15.1984,45.9738" id="Fill-31" fill="#DFD9CE"></path>
                        <path d="M41.84,44.1154 C40.973,47.7094 35.769,48.0804 30.936,46.8414 C26.103,45.7254 19.163,45.7254 21.766,38.4154 C22.633,35.8124 27.59,33.5824 32.547,34.3254 C38.99,35.4404 42.708,40.5214 41.84,44.1154" id="Fill-33" fill="#191A18"></path>
                        <path d="M48.0363,35.1925 C47.5413,36.8035 45.6823,37.4225 43.5753,36.8035 C41.4693,36.1845 40.4773,35.1925 41.0973,33.2105 C41.7173,31.1035 43.9473,29.4925 45.9303,29.9885 C48.0363,30.4835 48.6563,33.0865 48.0363,35.1925" id="Fill-35" fill="#FFFFFF"></path>
                        <path d="M46.8966,33.6329 C46.4006,35.4919 45.0376,35.2439 44.2936,35.1199 C43.5506,34.8719 42.6826,33.7569 43.0546,32.2699 C43.3026,31.2789 44.6666,30.7829 45.4096,31.0299 C46.1526,31.2789 47.3916,32.1459 46.8966,33.6329" id="Fill-37" fill="#191A18"></path>
                        <path d="M62.9064,8.4269 C69.9694,9.9129 68.9784,10.9049 69.3504,11.0289 C69.7214,11.1529 70.9614,10.9049 70.9614,10.9049 C67.4914,8.4269 67.1204,8.9219 62.9064,8.4269" id="Fill-39" fill="#5E5E5D"></path>
                        <path d="M26.88,51.4864 C26.384,53.0974 18.979,60.5614 22.696,67.2534 C25.458,68.2614 27.85,68.8724 29.643,69.2534 C32.871,69.9404 39.131,71.2074 42.245,68.7114 C42.62,68.4114 43.589,68.2054 43.617,68.1754 C44.318,67.4404 45.209,65.7154 45.206,62.3364 C45.082,60.7244 43.575,53.8844 43.203,52.6454 C42.832,53.3894 26.88,51.4864 26.88,51.4864" id="Fill-41" fill="#95958F"></path>
                        <path d="M29.0773,51.922 C29.5723,51.302 27.4663,51.674 27.4663,51.674 C26.2753,53.497 24.8083,56.185 23.8133,59.671 C22.9923,62.551 22.7403,65.108 22.6963,67.058 C23.0883,67.034 23.4803,67.011 23.8723,66.987 C23.7723,65.41 23.8073,62.951 24.6523,60.11 C25.9243,55.947 28.5813,52.541 29.0773,51.922" id="Fill-43" fill="#FFFFFF"></path>
                        <path d="M25.2355,69.0226 C25.2355,69.0226 29.3245,69.1466 31.8025,69.3946 C34.2815,69.6426 35.1485,69.7656 36.5115,69.5186 C37.8755,69.2706 41.5925,69.5186 43.5755,68.4036 C44.9385,65.6766 46.0535,61.8356 44.3185,57.3746 C44.0715,56.0106 43.8235,55.0196 43.8235,55.0196 C43.8235,55.0196 44.3185,54.7716 43.6995,60.5956 C42.8325,66.9166 35.5205,70.8816 25.2355,69.0226" id="Fill-45" fill="#5E5E5E"></path>
                        <path d="M45.1613,31.6505 C45.5043,31.6505 45.7813,31.9275 45.7813,32.2695 C45.7813,32.6125 45.5043,32.8895 45.1613,32.8895 C44.8193,32.8895 44.5423,32.6125 44.5423,32.2695 C44.5423,31.9275 44.8193,31.6505 45.1613,31.6505" id="Fill-47" fill="#FFFFFF"></path>
                        <path d="M70.2179,12.0197 C71.0849,13.5067 73.1919,17.3487 73.5639,21.1907 C73.9359,25.4037 72.9449,28.7487 72.1999,30.3607 C72.9449,28.7487 73.6879,27.0137 74.5549,25.4037 L73.6879,16.7287 L70.2179,12.0197 Z" id="Fill-49" fill="#5D5D5C"></path>
                        <path d="M18.9152,9.7892 C18.9152,9.7892 16.0652,6.4432 10.6132,6.5672 C5.1602,6.6912 9.1262,5.9482 9.1262,5.9482 L13.8352,5.5762 C13.8352,5.5762 17.4292,7.6832 17.6762,7.8072 C17.8002,7.9312 18.5442,8.6742 18.5442,8.6742 L18.9152,9.7892 Z" id="Fill-51" fill="#FFFFFF"></path>
                        <path d="M10.6134,7.1876 C10.6134,7.1876 6.6474,8.1786 3.9214,12.1436 C-0.1676,17.9676 2.1864,24.1646 2.1864,24.1646 C1.8144,24.4126 -3.2656,10.7816 10.6134,7.1876" id="Fill-53" fill="#FFFFFF"></path>
                        <path d="M27.3419,18.0919 C27.3419,18.0919 21.3939,16.8529 19.1629,22.1819 C17.1809,25.8989 14.8259,32.3429 14.8259,32.3429 C14.8259,32.3429 11.8519,41.1409 13.5869,43.6189 C13.7109,41.3889 14.3039,36.9779 14.8799,35.1929 C19.3379,21.3779 23.2529,18.3399 27.3419,18.0919" id="Fill-55" fill="#FFFFFF"></path>
                        <path d="M39.9816,15.1183 C39.9816,15.1183 37.6276,16.6043 38.8666,18.0923 L39.1146,18.0923 L39.9816,15.1183 Z" id="Fill-57" fill="#5D5D5C"></path>
                        <path d="M35.6447,17.9679 C35.6447,17.9679 33.7857,15.2419 35.2727,13.2589 C34.1577,13.7549 33.9097,14.6219 33.9097,14.6219 L34.4057,17.4729 L35.6447,17.9679 Z" id="Fill-59" fill="#FFFFFF"></path>
                        <path d="M35.1486,14.003 C34.7776,14.374 34.5296,14.746 34.5296,15.242 C34.4056,16.233 35.2726,17.101 35.2726,17.101 L36.0166,17.844 L35.3966,15.613 C35.3966,15.489 35.2726,14.746 35.1486,14.003 Z M10.8606,6.319 L12.7196,7.064 L10.8606,7.559 C10.7366,7.559 10.7366,7.559 10.6136,7.683 C9.2506,8.055 5.2846,9.046 3.3016,12.64 C1.4426,15.489 0.3276,19.951 3.0536,24.04 C6.0276,28.501 7.7626,29.121 12.8436,30.856 C13.4626,31.104 14.0836,31.228 14.8266,31.476 L15.8246,30.337 L14.8796,32.831 C12.8976,38.531 13.3386,42.504 15.4456,45.602 C18.1716,49.816 23.7486,50.311 23.7486,50.311 C23.7486,50.311 29.2006,50.931 36.1396,51.674 C49.6476,53.037 51.1336,50.187 52.7456,47.213 C54.2326,44.486 54.7276,41.513 55.2236,38.662 C55.3476,38.291 55.3476,37.795 55.4716,37.423 L55.5956,36.68 L56.3386,36.804 C57.9506,37.176 63.6506,38.167 67.9876,34.821 C69.5976,33.582 71.7056,31.104 73.1916,28.006 C73.6876,26.891 74.3066,22.677 73.8116,18.959 C73.0676,14.374 69.4746,12.02 68.7306,11.649 L66.5006,10.409 L68.8546,10.409 L68.9786,10.409 C67.7396,9.665 66.0046,9.17 64.1456,9.046 C62.6586,9.046 61.1716,9.294 59.6846,9.913 L56.8356,11.152 L58.9416,8.922 C57.5786,9.294 56.3386,9.789 55.2236,10.533 C50.5146,13.631 49.5236,18.959 49.2756,20.57 L49.1516,21.438 L48.2846,21.066 C45.9296,19.951 39.1146,18.464 38.9906,18.464 L38.4946,18.34 L38.4946,17.844 L38.4946,16.977 L38.2476,17.473 L37.6276,16.482 C37.6276,16.482 37.1316,15.489 37.6276,14.127 C36.8836,14.498 36.6356,15.366 36.6356,15.489 L36.1396,17.844 L36.5116,18.216 L34.7776,18.092 C34.7776,18.092 28.8296,17.721 23.5006,18.712 L22.6326,18.836 L22.7566,17.968 C22.8806,16.853 23.2526,13.012 20.7746,10.037 C20.2786,9.418 19.7836,9.046 19.1636,8.55 L19.2876,10.533 L17.9236,9.17 C17.1806,8.427 15.1986,6.443 12.2236,6.319 L10.8606,6.319 Z M41.9636,53.285 C40.2296,53.285 38.2476,53.161 35.8926,52.913 C29.0776,52.294 23.7486,51.674 23.5006,51.55 C23.1286,51.55 17.3046,50.931 14.2066,46.222 C11.9756,42.876 11.7286,38.167 13.5866,32.343 C13.0906,32.219 12.7196,32.095 12.2236,31.847 C7.1436,30.112 5.0366,29.368 1.8146,24.536 C-1.1594,19.951 -0.0434,14.994 2.0626,11.773 C3.6736,9.17 6.2756,7.683 8.2586,7.064 L8.1346,7.064 L5.9046,6.567 L8.0106,5.7 C9.3746,5.08 10.8606,4.833 12.3476,4.957 C13.9596,5.08 15.3216,5.576 16.4366,6.195 L16.0656,5.576 L18.1716,6.691 C19.5356,7.312 20.7746,8.179 21.7656,9.294 C24.1206,12.144 24.2446,15.489 24.1206,17.349 C27.8376,16.853 31.5546,16.853 33.4146,16.853 C33.1666,16.357 33.0426,15.737 33.0426,15.118 C33.1666,14.003 33.9096,13.012 35.2726,12.144 L36.5116,11.4 L36.2636,12.888 L36.2636,13.631 C36.8836,13.012 37.7516,12.64 38.9906,12.764 L40.3536,12.888 L39.4866,13.879 C39.2386,14.251 38.9906,14.498 38.8666,14.746 C39.3626,14.498 39.8576,14.374 40.4776,14.622 L41.4686,14.87 L40.7246,15.613 C40.1056,16.357 39.8576,16.977 39.7336,17.349 C41.3446,17.721 45.5576,18.712 47.9126,19.579 C48.4086,17.225 49.7716,12.392 54.3566,9.542 C56.2146,8.303 58.3216,7.683 60.5516,7.435 L62.2876,7.312 L61.5436,7.931 C62.4116,7.807 63.2786,7.683 64.0216,7.683 C67.9876,7.807 70.7136,9.789 72.0766,10.904 L74.0596,12.64 L71.4576,12.02 C71.3336,12.02 71.2096,12.02 71.0856,11.897 C72.5726,13.259 74.1826,15.489 74.8026,18.588 C75.4216,22.306 74.8026,26.767 74.1826,28.377 C72.6966,31.723 70.3416,34.449 68.6066,35.813 C64.2696,39.158 58.8176,38.662 56.4626,38.167 C56.4626,38.415 56.3386,38.538 56.3386,38.786 C55.8426,41.761 55.3476,44.858 53.7366,47.709 C52.1266,50.931 50.0186,53.285 41.9636,53.285 Z" id="Fill-61" fill="#0F1010"></path>
                        <path d="M22.1378,39.9015 C22.0138,40.2735 21.7658,41.3885 22.2608,42.3805 C22.7568,43.2475 23.7478,43.8675 25.3598,44.2395 C30.9358,45.4775 34.0338,45.9735 34.0338,45.9735 C35.5208,46.2215 39.7338,46.4695 40.7248,44.3625 C41.2208,43.3715 41.2208,41.6365 40.2298,39.9015 C39.2388,38.0435 37.0078,35.8125 31.5548,34.9455 C23.8718,34.0775 22.1378,39.7775 22.1378,39.9015 M36.1398,47.9565 C34.7778,47.9565 33.7848,47.7095 33.6618,47.7095 C33.6618,47.7095 30.5638,47.2135 24.9878,45.9735 C22.8808,45.4775 21.3938,44.6105 20.7748,43.2475 C19.7838,41.2645 20.6508,39.2825 20.6508,39.1585 C21.2698,37.6715 23.8718,32.3425 31.8028,33.2105 C37.9988,34.0775 40.6018,36.9275 41.7168,39.0345 C42.9558,41.3885 42.8318,43.7435 42.2118,45.1065 C41.0968,47.4615 38.2468,47.9565 36.1398,47.9565" id="Fill-63" fill="#0F0F10"></path>
                        <path d="M47.2931,36.3077 C48.6561,35.3167 48.9031,30.8557 45.5581,30.2367 C44.3181,29.9887 43.3271,30.1127 42.2121,31.3517 C41.2211,32.4667 40.7251,34.0777 40.9731,34.9457 C41.2211,35.8127 41.5931,36.1847 42.4601,36.4317 C44.1941,37.0517 45.6821,37.4227 47.2931,36.3077 M45.1871,37.2997 C43.5751,37.2997 41.0971,37.0517 40.3541,34.8217 C39.9811,33.7057 40.9731,31.2277 41.9641,30.2367 C43.2031,28.9967 44.8141,28.8727 46.0541,29.1207 C47.7881,29.4927 48.5321,31.3517 48.5321,31.4757 C48.5321,31.5997 49.7721,35.0697 47.5411,36.8037 C46.7971,37.2997 45.9301,37.2997 45.1871,37.2997" id="Fill-65" fill="#0F1010"></path>
                        <path d="M19.9064,26.6427 C19.7834,26.6427 19.4114,25.2797 20.5264,24.7837 C22.0134,24.4127 22.3854,25.4037 22.2604,25.4037 C21.7654,25.1557 21.2694,25.1557 20.8984,25.4037 C20.2784,25.7757 20.0304,26.2707 19.9064,26.6427" id="Fill-67" fill="#171714"></path>
                        <path d="M46.549,28.253 C46.426,28.13 47.417,27.138 48.408,27.758 C49.524,28.749 48.779,29.616 48.779,29.616 C48.656,29.121 48.408,28.625 48.16,28.501 C47.417,28.13 46.921,28.13 46.549,28.253" id="Fill-69" fill="#000104"></path>
                        <path d="M49.5236,28.253 C48.6566,25.527 46.1776,26.519 46.1776,26.519" id="Fill-71" fill="#95958F"></path>
                        <path d="M33.9093,50.6827 C32.0513,50.6827 31.0593,49.6917 30.8113,49.5677 C30.6873,49.4437 30.6873,49.1957 30.8113,49.0717 C30.9353,48.9477 31.1833,48.9477 31.3073,49.0717 C31.3073,49.0717 32.4233,50.1867 34.4053,49.9397 C36.2633,49.6917 37.7513,48.5767 37.8753,48.4527 C37.9993,48.3287 36.5123,50.4347 34.5293,50.6827 L33.9093,50.6827 Z" id="Fill-73" fill="#0F1010"></path>
                        <path d="M23.129,42.38 C23.129,42.38 21.766,35.565 28.209,35.937 C23.5,36.804 23.129,42.38 23.129,42.38" id="Fill-75" fill="#FFFFFF"></path>
                        <path d="M40.8488,0.7433 L64.3938,13.5073 L50.6388,17.2243 L50.2668,21.3133 C50.2668,21.3133 47.7878,18.9593 38.4948,17.8443 C29.9448,16.9763 25.8548,17.8443 25.8548,17.8443 L26.3508,14.1273 L14.2058,7.5583 L40.8488,0.7433" id="Fill-77" fill="#171714"></path>
                        <path d="M40.9728,0.0001 L64.5178,12.7641 C64.7658,12.8881 64.8898,13.1351 64.8898,13.3831 C64.8898,13.6311 64.6418,13.8791 64.3938,14.0031 L51.1338,17.5971 L50.7628,21.3131 C50.7628,21.5621 50.5148,21.8101 50.3908,21.8101 C50.2668,21.9341 50.2668,21.9341 50.1428,21.9341 C50.0188,21.9341 49.7718,21.8101 49.6478,21.6861 C49.6478,21.6861 47.1688,19.4551 38.2468,18.4641 C30.0688,17.5971 25.9788,18.3401 25.9788,18.3401 C25.7308,18.3401 25.6078,18.3401 25.3598,18.2161 C25.2358,18.0921 25.1118,17.8441 25.1118,17.5971 L25.4838,14.3741 L13.7108,8.0551 C13.4628,7.9311 13.3388,7.6831 13.3388,7.4351 C13.3388,7.1871 13.5868,6.9391 13.8348,6.8151 L40.4778,0.0001" id="Fill-79" fill="#000104"></path>
                        <path d="M40.7247,1.3634 L15.9417,7.6824 L26.5987,13.5074 C26.8457,13.6314 26.9697,13.8794 26.9697,14.1274 L26.5987,16.9764 C27.4657,16.8524 28.9537,16.7284 30.9357,16.7284 C32.9177,16.7284 35.3967,16.8524 38.4947,17.2244 C44.9387,17.9674 48.1607,19.3314 49.6477,20.0744 L49.8957,17.1004 C49.8957,16.8524 50.1427,16.6044 50.3907,16.4814 L62.5357,13.1344 L40.7247,1.3634" id="Fill-81" fill="#000104"></path>
                        <path d="M50.1427,21.3136 C50.1427,21.3136 50.8867,14.9946 50.8867,14.4986 C38.7427,7.8066 26.5987,11.5246 26.5987,11.5246 L25.8547,17.5966 C28.9537,17.1006 33.5387,16.8526 38.8667,17.7206 C43.6997,18.4636 47.5407,19.9516 50.1427,21.3136" id="Fill-83" fill="#545454"></path>
                        <path d="M31.9269,16.4816 C34.2809,16.4816 36.7599,16.7286 39.1139,17.1006 C42.8319,17.7206 46.3019,18.8356 49.7719,20.3226 C49.8959,18.8356 50.2669,15.9856 50.3909,14.8706 C39.9819,9.2946 29.5729,11.5246 27.4659,12.0196 L26.8459,16.8526 C28.4569,16.6046 30.1929,16.4816 31.9269,16.4816 Z M50.7629,22.3056 L49.8959,21.9336 C46.4259,20.1986 42.7079,19.0836 38.8659,18.4636 C34.6539,17.7206 30.3159,17.7206 26.1029,18.3396 L25.0699,18.4596 L26.1029,11.0286 L26.4749,10.9046 C26.9699,10.7816 38.9899,7.1876 51.2579,14.0026 L51.6299,14.1276 L51.6299,14.6226 C51.6299,15.1186 50.8869,21.4376 50.8869,21.4376 L50.7629,22.3056 Z" id="Fill-85" fill="#000104"></path>
                        <path d="M15.0744,32.3429 L13.8354,31.9709 C13.9594,31.4759 18.4204,18.3399 23.9964,17.4729 L24.8414,18.4909 C20.8764,18.9879 16.3134,28.7489 15.0744,32.3429" id="Fill-87" fill="#000104"></path>
                        <path d="M27.466,12.0197 L26.846,16.8527 L27.82,16.7197 C27.82,15.9767 28.206,12.5487 28.454,11.8057 C28.082,11.8057 27.838,11.8967 27.466,12.0197" id="Fill-89" fill="#FFFFFF"></path>
                        <path d="M56.091,38.1671 C55.967,38.1671 55.967,38.1671 56.091,38.1671 C55.596,38.1671 55.348,37.7951 55.472,37.4231 C56.958,26.3951 50.143,22.0581 49.896,21.9341 C49.524,21.6861 49.524,21.3131 49.648,21.0661 C49.896,20.6941 50.267,20.6941 50.515,20.8181 C50.887,21.0661 58.321,25.7751 56.711,37.6711 C56.711,37.9191 56.339,38.1671 56.091,38.1671" id="Fill-91" fill="#0F1010"></path>
                        <path d="M45.5646,65.5978 C45.5626,65.6108 45.5606,65.6228 45.5606,65.6378 L45.5786,65.6368 L45.5646,65.5978 Z" id="Fill-93" fill="#000104"></path>
                        <path d="M41.2208,56.088 L46.6088,59.383 C46.6088,59.383 45.6128,62.118 48.4078,62.876 C51.2038,63.634 53.4328,63.935 53.5558,61.27 C54.9688,60.558 54.4368,57.667 54.4368,57.496 C54.4368,57.326 56.0708,55.526 54.5348,53.951 C52.9998,52.375 52.4988,52.479 52.4988,52.479 C52.4988,52.479 54.7348,47.078 53.3368,46 C51.9398,44.922 49.1928,46.393 49.2068,48.127 C49.2228,49.861 49.2068,52.119 49.2068,52.119 C49.2068,52.119 46.7718,52.574 47.2498,55.609 C46.9318,56.127 42.7078,52.913 42.7078,52.913 L41.2208,56.088 Z" id="Fill-95" fill="#95958F"></path>
                        <path d="M44.7199,58.5646 C44.7759,58.9926 46.1289,63.3266 43.8169,68.0156" id="Stroke-97" stroke="#000000" stroke-width="2"></path>
                        <path d="M49.171,52.0265 C49.171,52.0265 48.025,46.5165 51.799,45.6775 C55.571,44.8395 52.158,52.6485 52.158,52.6485" id="Stroke-99" stroke="#000000" stroke-width="2"></path>
                        <path d="M17.5314,63.4435 C17.4164,60.7745 20.1924,55.4845 26.7034,52.3075 C26.7034,52.8035 25.1964,55.8995 24.4534,57.8815 C23.4834,59.5995 22.5484,65.8795 22.4964,66.5785 C22.4964,66.5785 23.7264,67.0315 21.0474,65.6185 C19.4074,64.7535 17.5314,63.4435 17.5314,63.4435" id="Fill-101" fill="#95958F"></path>
                        <path d="M18.2824,64.2863 C18.0624,63.3073 18.1674,62.1273 19.3384,59.4433 C21.3004,54.9473 27.0574,52.3233 27.0574,52.3233 L26.9544,51.4923 C26.5824,51.4923 21.8334,53.8893 18.7794,58.6203 C17.3424,61.4943 17.4564,63.3133 17.5314,63.4433 L18.2824,64.2863 Z" id="Fill-103" fill="#000104"></path>
                        <path d="M20.5988,66.5548 C20.7928,64.0328 21.3338,60.7658 22.7368,57.1958 C23.3858,55.5398 26.0818,52.4848 26.7028,52.3078 C26.7028,52.3078 23.0078,58.6198 22.4958,66.5778 L20.5988,66.5548 Z" id="Fill-105" fill="#000000"></path>
                        <path d="M29.5421,30.1388 C29.7711,29.7688 27.5421,28.0268 24.7351,27.9008 C22.1051,27.7838 20.6061,29.1178 19.9631,29.6748 C21.2921,29.0418 22.7071,28.6148 24.8921,28.7698 C27.6211,28.9638 28.9921,31.2428 29.5421,30.1388" id="Fill-107" fill="#000000"></path>
                        <path d="M23.0079,68.0157 L22.2739,67.0577 C22.4379,64.7117 22.4459,62.5557 23.2819,59.4317 C23.9709,56.8567 25.9309,53.4997 26.7669,51.6387 L28.2719,51.8207 C27.0069,53.2527 25.0709,56.0347 24.3339,59.2127 C23.6009,62.3767 23.1839,65.7157 23.0079,68.0157" id="Fill-109" fill="#000104"></path>
                        <path d="M50.0568,51.8204 C50.0568,51.8204 49.4468,47.0744 51.4828,46.2764 C48.1688,47.0744 49.2068,52.1194 49.2068,52.1194 L50.0568,51.8204 Z" id="Fill-111" fill="#FFFFFF"></path>
                        <path d="M48.1691,55.4845 C48.1691,55.4845 47.7321,53.4125 49.2521,52.6484974 C46.5711,52.6455 47.2901,55.2795 47.2901,55.2795 L48.1691,55.4845 Z" id="Fill-113" fill="#FFFFFF"></path>
                        <path d="M47.3478,59.2716 C47.3478,59.2716 46.7778,57.5946 47.5328,56.2176 C47.2498,55.6096 46.2918,56.2176 46.2918,56.2176 C46.2918,56.2176 46.3258,59.1336 46.6088,59.3826 C46.8908,59.6306 47.3478,59.2716 47.3478,59.2716" id="Fill-115" fill="#FFFFFF"></path>
                        <path d="M47.8087,62.3361 C47.8087,62.3361 47.0667,61.2831 47.3497,60.3551 C47.6327,59.4251 46.1327,59.9501 46.1327,59.9501 C46.1327,59.9501 45.8117,61.4471 47.8087,62.3361" id="Fill-117" fill="#FFFFFF"></path>
                        <path d="M45.9435,59.3273 C45.8785,59.0613 45.3295,56.6993 46.1555,55.5693 C46.4235,55.2033 46.8105,54.9923 47.2755,54.9623 L47.4885,54.9473 L47.6405,55.0963 C48.6515,56.0793 51.2735,56.5003 52.1985,56.5793 C52.5395,56.5753 52.7905,56.8143 52.7995,57.0363 C52.8115,57.2873 52.5145,57.5853 52.1175,57.5343 C51.5475,57.4933 50.8925,57.3833 50.1695,57.2183 C49.1425,56.9833 47.9405,56.5913 47.1635,55.9523 C47.0695,55.9873 46.9945,56.0463 46.9285,56.1353 C46.5035,56.7173 46.6695,58.2613 46.8745,59.0983 L45.9435,59.3273 Z" id="Fill-119" fill="#000000"></path>
                        <path d="M50.8712,63.9445 C49.5652,63.9445 48.2202,63.5155 47.9942,63.4405 C47.9802,63.4385 46.7172,63.1255 46.0702,61.9685 C45.6232,61.1715 45.5842,60.1935 45.9532,59.0635 L46.1682,58.4075 L46.7072,58.8385 C48.7422,60.4615 50.9842,59.8375 51.0072,59.8305 C51.4842,59.7215 51.8542,59.9705 51.8822,60.1905 C51.9062,60.3875 51.6652,60.6675 51.2732,60.7515 C50.8672,60.8465 50.3642,60.9235 49.7892,60.9135 C48.9392,60.8975 47.8222,60.7045 46.7032,60.0065 C46.6082,60.5905 46.6772,61.0905 46.9062,61.5015 C47.3432,62.2825 48.2482,62.5175 48.2572,62.5195 C49.4462,62.9135 51.5382,63.2775 52.2572,62.6305 C53.1322,61.8415 52.9322,61.3245 52.9232,61.3025 L52.7452,60.8765 L53.1572,60.6635 C53.2602,60.6145 54.1822,60.1405 53.9632,59.0045 C53.6822,57.5375 54.2952,55.8405 54.4822,55.3705 C54.4112,54.9335 53.8942,53.0895 50.3232,52.8025 C49.0572,52.7025 48.1862,52.9185 47.8112,53.4305 C47.3012,54.1285 47.7452,55.2465 47.7502,55.2575 L46.8642,55.6235 C46.8372,55.5575 46.2092,54.0045 47.0342,52.8705 C47.6232,52.0595 48.7562,51.7155 50.3992,51.8475 C55.2572,52.2365 55.4452,55.2895 55.4512,55.4195 L55.4562,55.5295 L55.4122,55.6315 C55.4042,55.6495 54.6382,57.4335 54.9042,58.8225 C55.1462,60.0825 54.4732,60.9265 53.8962,61.3355 C53.9342,61.7865 53.8072,62.5245 52.8972,63.3415 C52.3922,63.7965 51.6392,63.9445 50.8712,63.9445" id="Fill-121" fill="#000000"></path>
                        <path d="M45.9835,60.6339 C44.3245,58.4599 41.7665,57.5319 41.7405,57.5239 C41.3715,57.4189 41.1255,57.1789 41.1415,56.9959 C41.1615,56.7869 41.5365,56.5429 42.0615,56.6199 C42.5835,56.8229 43.1585,57.0939 43.7605,57.4529 C44.6885,58.0059 45.8305,58.8539 46.7455,60.0519 L45.9835,60.6339 Z" id="Fill-123" fill="#000000"></path>
                        <path d="M46.9611,54.9474 C46.4411,54.8274 43.2461,54.1774 41.9651,52.8374" id="Stroke-125" stroke="#000000" stroke-width="2"></path>
                        <path d="M53.1222,53.5861 C53.1222,53.5861 54.2912,59.8031 52.3192,60.8391 C52.3832,62.1871 51.7302,62.4521 51.2912,62.9661 C54.3172,62.5611 54.3172,59.4711 54.3172,59.4711 C54.3172,59.4711 54.1972,57.1581 54.3172,57.1371 C54.4362,57.1161 55.6802,54.8471 53.1222,53.5861" id="Fill-127" fill="#000000"></path>
                        <path d="M52.0812,46.0968 C52.0812,46.0968 53.8142,47.6358 51.2912,51.9568 C51.4822,52.2768 52.3752,52.1188 52.3752,52.1188 C52.3752,52.1188 55.0362,44.8588 52.0812,46.0968" id="Fill-129" fill="#000000"></path>
                        <path d="M18.4699,64.3712 C18.4699,64.3712 18.7029,57.8832 23.5009,54.5182 C17.6959,58.6202 18.1239,64.2152 18.1239,64.2152 L18.4699,64.3712 Z" id="Fill-131" fill="#FFFFFF"></path>
                        <g id="Group-135" transform="translate(6.000000, 40.385800)">
                            <mask id="mask-2" fill="white">
                                <use xlink:href="#path-1"></use>
                            </mask>
                            <g id="Clip-134"></g>
                            <path d="M28.4054,30.0001 C12.5444,30.0001 0.1514,17.7321 0.1514,2.2421 L1.5144,2.2421 C1.5144,17.1121 13.4114,28.6371 28.5294,28.6371 C44.0184,28.6371 56.9014,15.5011 56.9014,1.2511 L58.1454,0.7551 C58.1454,8.1901 55.1724,16.6171 49.4714,21.9451 C43.6474,27.0261 36.2124,30.0001 28.4054,30.0001" id="Fill-133" fill="#000104" mask="url(#mask-2)"></path>
                        </g>
                    </g>
                </g>
            </g>
        </g>
    </g>
</svg>