
<svg width="203px" height="32px" viewBox="0 0 203 32" version="1.1" xmlns="http://www.w3.org/2000/svg" xmlns:xlink="http://www.w3.org/1999/xlink">
    <defs>
        <polyline id="path-1" points="0.0770886076 0 202.687791 0 202.687791 31.9232 0.0770886076 31.9232"></polyline>
        <polyline id="path-3" points="0.0770886076 0 202.687791 0 202.687791 31.9232 0.0770886076 31.9232"></polyline>
        <polyline id="path-5" points="0.0770886076 0 202.687791 0 202.687791 31.9232 0.0770886076 31.9232"></polyline>
        <polyline id="path-7" points="0.0770886076 0 202.687791 0 202.687791 31.9232 0.0770886076 31.9232"></polyline>
        <polyline id="path-9" points="0.0770886076 0 202.687791 0 202.687791 31.9232 0.0770886076 31.9232"></polyline>
        <polyline id="path-11" points="0.0770886076 0 202.687791 0 202.687791 31.9232 0.0770886076 31.9232"></polyline>
        <polyline id="path-13" points="0 0 202.610703 0 202.610703 31.9232 0 31.9232"></polyline>
    </defs>
    <g id="Page-1" stroke="none" stroke-width="1" fill="none" fill-rule="evenodd">
        <g id="ПОДБОРКИ" transform="translate(-842.000000, -2432.000000)">
            <g id="Group-4" transform="translate(-45.000000, 2078.000000)">
                <g id="logo-invert-4dccb61f9e790a719656ba18739abcaf22c74cbd598f4a47936eb53da556dda9" transform="translate(887.000000, 354.000000)">
                    <g id="Fill-1-Clipped">
                        <mask id="mask-2" fill="white">
                            <use xlink:href="#path-1"></use>
                        </mask>
                        <g id="path-1"></g>
                        <path d="M21.3933734,26.82496 L11.9744303,0 L6.57951266,0 L4.84244936,4.96384 L12.3855697,26.82496 C12.842962,28.192 12.7054873,29.51296 9.77997469,29.51296 L9.77997469,32 L24.5000443,32 L24.5000443,29.51296 C23.2666266,29.51296 22.0768924,28.82816 21.3933734,26.82496" id="Fill-1" fill="#FFFFFF" mask="url(#mask-2)"></path>
                    </g>
                    <g id="Fill-3-Clipped">
                        <mask id="mask-4" fill="white">
                            <use xlink:href="#path-3"></use>
                        </mask>
                        <g id="path-1"></g>
                        <path d="M40.3224811,29.42592 L41.3015064,29.42592 L41.3015064,32 L26.4221203,32 L26.4221203,29.69216 C27.0015697,29.64736 27.4897975,29.55904 27.891943,29.33632 C28.5600443,28.98304 28.9172215,28.27136 28.9172215,27.2064 L28.9172215,13.80352 C28.9172215,12.29312 28.6936645,11.85024 26.8216962,11.89376 C26.512057,11.89376 26.1985633,11.89376 25.7989873,11.93856 L25.7989873,10.38592 C27.8482595,9.63072 31.8568671,8.47616 34.4406203,8.47616 C36.8470697,8.47616 37.4252342,9.27488 37.4252342,11.31776 L37.4252342,12.51584 C39.4757911,9.85216 41.6586836,8.47616 44.1088164,8.47616 C46.3816456,8.47616 48.1636772,9.89696 48.1636772,12.38272 C48.1636772,14.77888 46.5589494,16.3328 44.4634241,16.3328 C41.6137152,16.3328 41.8809557,13.22624 39.3421709,13.22624 C39.0749303,13.22624 38.4505127,13.26976 37.4252342,13.80352 L37.4252342,27.2064 C37.4252342,28.49408 38.4055443,29.42592 40.3224811,29.42592" id="Fill-3" fill="#FFFFFF" mask="url(#mask-4)"></path>
                    </g>
                    <g id="Fill-4-Clipped">
                        <mask id="mask-6" fill="white">
                            <use xlink:href="#path-5"></use>
                        </mask>
                        <g id="path-1"></g>
                        <path d="M51.1945443,9.14304 L70.217443,9.14304 L70.9754811,10.38592 L59.3029811,28.89344 L62.9993797,28.89344 C65.9852785,28.89344 68.5240633,26.80704 69.4606899,23.7888 L70.9754811,23.96672 L69.9951709,32 L49.8583417,32 L49.1902405,30.17984 L60.8614557,11.584 L57.5646329,11.584 C53.8682342,11.584 52.3084747,13.93664 51.3718481,16.3776 L49.7247215,16.15488 L51.1945443,9.14304" id="Fill-4" fill="#FFFFFF" mask="url(#mask-6)"></path>
                    </g>
                    <g id="Fill-5-Clipped">
                        <mask id="mask-8" fill="white">
                            <use xlink:href="#path-7"></use>
                        </mask>
                        <g id="path-1"></g>
                        <path d="M96.7744683,29.2928 C96.9967405,29.3376 97.2626962,29.2928 97.5761899,29.2928 L97.6198734,30.31424 C96.4172911,30.97984 94.057095,32 91.1148797,32 C86.9726519,32 86.0822785,30.18112 86.0822785,27.60576 L86.0822785,27.11808 C84.6111709,29.60384 82.3396266,31.95648 78.7755633,31.95648 C75.3888038,31.95648 73.4294683,29.82656 73.4294683,26.67392 C73.4294683,22.4576 76.9048797,21.03808 81.4479683,20.10624 L86.0822785,19.17184 L86.0822785,18.37312 C86.0822785,15.75552 85.1019683,14.02496 81.7601772,14.02496 C79.9331772,14.02496 77.2607722,14.42432 74.2761583,15.13472 L74.2761583,11.98336 C78.0624936,9.94176 82.3396266,8.47744 85.9486583,8.47744 C92.2737785,8.47744 94.5915759,11.93856 94.5915759,17.84192 L94.5915759,26.53952 C94.5915759,28.71552 95.0810886,29.2928 96.7744683,29.2928 M86.0822785,26.05312 L86.0822785,20.94976 L83.7657658,21.52448 C82.2060064,21.92512 81.0483924,22.58944 81.0483924,24.18816 C81.0483924,25.92 82.4295633,26.49728 83.7657658,26.49728 C84.5225189,26.49728 85.3242405,26.31936 86.0822785,26.05312" id="Fill-5" fill="#FFFFFF" fill-rule="nonzero" mask="url(#mask-8)"></path>
                    </g>
                    <g id="Fill-6-Clipped">
                        <mask id="mask-10" fill="white">
                            <use xlink:href="#path-9"></use>
                        </mask>
                        <g id="path-1"></g>
                        <path d="M111.256848,29.2928 C111.656424,29.51424 112.102253,29.64736 112.680417,29.69216 L112.680417,32 L99.1834873,32 L99.1834873,29.69216 C99.7603671,29.64736 100.252449,29.55904 100.654595,29.3376 C101.322696,28.98304 101.678589,28.27136 101.678589,27.2064 L101.678589,13.80352 C101.678589,12.33792 101.456316,11.89376 99.8066203,11.89376 C99.4507278,11.89376 99.0498671,11.89376 98.5590697,11.93856 L98.5590697,10.38592 C100.608342,9.63072 104.618234,8.47616 107.201987,8.47616 C109.608436,8.47616 110.186601,9.27616 110.186601,11.31776 L110.186601,12.96 C112.548083,10.38592 115.489013,8.47616 118.873203,8.47616 C122.662108,8.47616 124.665127,10.03008 125.379481,13.18144 C127.827044,10.51776 130.769259,8.47616 134.289639,8.47616 C139.232303,8.47616 141.149241,11.09504 141.149241,16.59904 L141.149241,27.2064 C141.149241,28.27136 141.550101,28.89344 142.216917,29.2928 C142.620348,29.51424 143.066177,29.64736 143.644342,29.69216 L143.644342,32 L130.146127,32 L130.146127,29.69216 C130.723006,29.64736 131.215089,29.55904 131.614664,29.3376 C132.28405,28.98304 132.638658,28.27136 132.638658,27.2064 L132.638658,19.04 C132.638658,15.6224 132.105462,13.26976 128.675019,13.26976 C127.604772,13.26976 126.715683,13.40416 125.511817,13.93536 C125.645436,14.73536 125.734089,15.6224 125.734089,16.59904 L125.734089,27.2064 C125.734089,28.27136 126.136234,28.89344 126.80305,29.2928 C127.205197,29.51424 127.651025,29.64736 128.230475,29.69216 L128.230475,32 L114.730975,32 L114.730975,29.69216 C115.310424,29.64736 115.801222,29.55904 116.199513,29.3376 C116.868899,28.98304 117.224791,28.27136 117.224791,27.2064 L117.224791,19.04 C117.224791,15.6224 116.690311,13.26976 113.259867,13.26976 C112.235873,13.26976 111.344215,13.40416 110.186601,13.89184 L110.186601,27.2064 C110.186601,28.27136 110.587462,28.89344 111.256848,29.2928" id="Fill-6" fill="#FFFFFF" mask="url(#mask-10)"></path>
                    </g>
                    <g id="Fill-7-Clipped">
                        <mask id="mask-12" fill="white">
                            <use xlink:href="#path-11"></use>
                        </mask>
                        <g id="path-1"></g>
                        <path d="M168.956386,29.2928 C169.178658,29.3376 169.444614,29.2928 169.758108,29.2928 L169.801791,30.31424 C168.599209,30.97984 166.239013,32 163.298083,32 C159.15457,32 158.264197,30.18112 158.264197,27.60576 L158.264197,27.11808 C156.793089,29.60384 154.521544,31.95648 150.957481,31.95648 C147.569436,31.95648 145.611386,29.82656 145.611386,26.67392 C145.611386,22.4576 149.086797,21.03808 153.629886,20.10624 L158.264197,19.17184 L158.264197,18.37312 C158.264197,15.75552 157.283886,14.02496 153.940811,14.02496 C152.115095,14.02496 149.441405,14.42432 146.458076,15.13472 L146.458076,11.98336 C150.244411,9.94176 154.521544,8.47744 158.130576,8.47744 C164.455697,8.47744 166.773494,11.93856 166.773494,17.84192 L166.773494,26.53952 C166.773494,28.71552 167.263006,29.2928 168.956386,29.2928 M158.264197,26.05312 L158.264197,20.94976 L155.947683,21.52448 C154.387924,21.92512 153.230311,22.58944 153.230311,24.18816 C153.230311,25.92 154.611481,26.49728 155.947683,26.49728 C156.704436,26.49728 157.506158,26.31936 158.264197,26.05312" id="Fill-7" fill="#FFFFFF" fill-rule="nonzero" mask="url(#mask-12)"></path>
                    </g>
                    <g id="Fill-8-Clipped" transform="translate(0.000000, 7.000000)">
                        <mask id="mask-14" fill="white">
                            <use xlink:href="#path-13"></use>
                        </mask>
                        <g id="path-1"></g>
                        <path d="M171.677614,23.44736 L171.545278,17.05632 L173.370994,16.8336 C174.974436,20.29472 177.245981,22.60384 180.321817,22.60384 C182.458456,22.60384 183.662323,21.35968 183.662323,19.89664 C183.662323,18.34272 182.1925,17.67584 180.321817,17.18816 L178.316228,16.65568 C175.286645,15.85568 171.899886,13.72576 171.899886,9.64384 C171.899886,4.80672 176.532911,1.47744 182.859317,1.47744 C185.30945,1.47744 188.026823,1.9664 190.166031,3.16448 L190.611861,8.84512 L188.472652,8.97824 C186.513317,5.07296 184.464044,3.8736 182.281152,3.8736 C180.3655,3.8736 179.383905,5.07296 179.383905,6.4912 C179.383905,8.22432 180.676424,9.02304 182.416057,9.4672 L184.86362,10.088 C187.80455,10.8432 191.368614,12.35104 191.368614,16.65568 C191.368614,22.51552 184.908589,25 179.520095,25 C176.935057,25 173.992842,24.424 171.677614,23.44736 L17.4327655,30.0925001" id="Fill-8" fill="#FFFFFF" mask="url(#mask-14)"></path>
                    </g>
                    <g id="Fill-9-Clipped" transform="translate(193.000000, 16.000000)" fill="#FFFFFF">
                        <path d="M4.99746889,8.7534 C2.77412111,8.7534 0.316947778,7.62885 0.316947778,4.49415 C0.316947778,1.35675 2.77412111,0.18765 4.99746889,0.18765 C7.17405111,0.18765 9.67665222,1.35675 9.67665222,4.49415 C9.67665222,7.62885 7.17405111,8.7534 4.99746889,8.7534" id="Fill-9"></path>
                    </g>
                    <g id="Fill-10-Clipped" transform="translate(0.000000, 18.000000)" fill="#FFFFFF">
                        <path d="M4.48969309,9 C2.20293175,9 0,7.81862591 0,4.52410968 C0,1.22817523 2.20293175,0 4.48969309,0 C6.72835548,0 9,1.22817523 9,4.52410968 C9,7.81862591 6.72835548,9 4.48969309,9" id="Fill-10"></path>
                    </g>
                </g>
            </g>
        </g>
    </g>
</svg>