
<svg width="18px" height="19px" viewBox="0 0 18 19" version="1.1" xmlns="http://www.w3.org/2000/svg" xmlns:xlink="http://www.w3.org/1999/xlink">
    <g id="Page-1" stroke="none" stroke-width="1" fill="none" fill-rule="evenodd" opacity="0.92796689">
        <g id="ГЛАВНАЯ" transform="translate(-1102.000000, -201.000000)" fill="#FFFFFF" fill-rule="nonzero" stroke="#FFFFFF" stroke-width="0.5">
            <g id="Меню" transform="translate(374.000000, 20.000000)">
                <g id="Group-15" transform="translate(1.000000, 0.000000)">
                    <g id="Group-3">
                        <path d="M744.442036,197.751411 L740.326214,193.47075 C741.384464,192.21275 741.964286,190.629929 741.964286,188.982143 C741.964286,185.13225 738.832036,182 734.982143,182 C731.13225,182 728,185.13225 728,188.982143 C728,192.832036 731.13225,195.964286 734.982143,195.964286 C736.427446,195.964286 737.80475,195.528357 738.982304,194.700821 L743.129393,199.013964 C743.302732,199.193982 743.535875,199.29325 743.785714,199.29325 C744.022196,199.29325 744.246536,199.203089 744.416839,199.039161 C744.778696,198.690964 744.790232,198.113571 744.442036,197.751411 Z M734.982143,183.821429 C737.827821,183.821429 740.142857,186.136464 740.142857,188.982143 C740.142857,191.827821 737.827821,194.142857 734.982143,194.142857 C732.136464,194.142857 729.821429,191.827821 729.821429,188.982143 C729.821429,186.136464 732.136464,183.821429 734.982143,183.821429 Z" id="Shape"></path>
                    </g>
                </g>
            </g>
        </g>
    </g>
</svg>