
<svg width="16px" height="17px" viewBox="0 0 16 17" version="1.1" xmlns="http://www.w3.org/2000/svg" xmlns:xlink="http://www.w3.org/1999/xlink">
    <g id="Page-1" stroke="none" stroke-width="1" fill="none" fill-rule="evenodd">
        <g id="ПОДБОРКА" transform="translate(-885.000000, -887.000000)" fill="#EF1832">
            <g id="foreign" transform="translate(885.000000, 887.000000)">
                <path d="M15.0360468,0 L9.22920078,0 C8.82832749,0 8.50333723,0.324990253 8.50333723,0.725863548 C8.50333723,1.12673684 8.82832749,1.4517271 9.22920078,1.4517271 L13.2836881,1.4517271 L5.8125614,8.92288499 C5.5291462,9.20630019 5.5291462,9.66590253 5.8125614,9.94938012 C5.95425341,10.0910721 6.14001559,10.1619649 6.32577778,10.1619649 C6.51153996,10.1619649 6.69733333,10.0910721 6.83899415,9.94934893 L14.3102144,2.47822222 L14.3102144,6.53270955 C14.3102144,6.93358285 14.6352047,7.2585731 15.036078,7.2585731 C15.4369513,7.2585731 15.7619415,6.93358285 15.7619415,6.53270955 L15.7619415,0.725863548 C15.7619103,0.324990253 15.4369201,0 15.0360468,0 Z" id="Path"></path>
                <path d="M12.3395244,7.55511891 C11.9386511,7.55511891 11.6136608,7.88010916 11.6136608,8.28098246 L11.6136608,14.813692 L1.45169591,14.813692 L1.45169591,4.65169591 L7.98440546,4.65169591 C8.38527875,4.65169591 8.71026901,4.32670565 8.71026901,3.92583236 C8.71026901,3.52495906 8.38527875,3.2 7.98440546,3.2 L0.725863548,3.2 C0.324990253,3.2 0,3.52499025 0,3.92586355 L0,15.5395556 C0,15.9403977 0.324990253,16.2653879 0.725863548,16.2653879 L12.3395556,16.2653879 C12.7404288,16.2653879 13.0654191,15.9403977 13.0654191,15.5395244 L13.0654191,8.28098246 C13.0653879,7.88010916 12.7403977,7.55511891 12.3395244,7.55511891 Z" id="Path"></path>
            </g>
        </g>
    </g>
</svg>