
<svg width="29px" height="19px" viewBox="0 0 29 19" version="1.1" xmlns="http://www.w3.org/2000/svg" xmlns:xlink="http://www.w3.org/1999/xlink">
    <g id="Page-1" stroke="none" stroke-width="1" fill="none" fill-rule="evenodd">
        <g id="ГЛАВНАЯ" transform="translate(-1179.000000, -314.000000)">
            <g id="Новости" transform="translate(1179.000000, 274.000000)">
                <g id="Page"></g>
                <g id="Group" transform="translate(0.000000, 35.000000)">
                    <g id="Ленточка" transform="translate(14.500000, 14.500000) rotate(-90.000000) translate(-14.500000, -14.500000) translate(5.000000, 0.000000)">
                        <path d="M12.8889159,3 L1.11115814,3 C0.49750254,3 0,3.3812572 0,3.85152741 L0,28.1484995 C0,28.4664599 0.231120894,28.7579093 0.59943278,28.9043153 C0.967670589,29.0507212 1.41176346,29.0277867 1.750963,28.8446516 L7,26.0119037 L12.249037,28.8446516 C12.5886069,29.0279003 13.0325516,29.0506077 13.4005672,28.9043153 C13.7688791,28.7579093 14,28.4664031 14,28.1484995 L14,3.85152741 C14.0000741,3.3812572 13.5025715,3 12.8889159,3 Z" id="Path-Copy" fill="#070707" opacity="0.0873325893"></path>
                        <path d="M17.8095528,0 L5.19052658,0 C4.53303844,0 4,0.395920943 4,0.884278462 L4,26.1157495 C4,26.4459391 4.24762953,26.7485981 4.64224941,26.9006351 C5.03678992,27.052672 5.51260371,27.0288555 5.87603179,26.8386766 L11.5,23.896977 L17.1239682,26.8386766 C17.4877931,27.0289734 17.9634482,27.0525541 18.3577506,26.9006351 C18.7523705,26.7485981 19,26.4458802 19,26.1157495 L19,0.884278462 C19.0000794,0.395920943 18.4670409,0 17.8095528,0 Z" id="Path" fill="#FF973D"></path>
                    </g>
                    <g id="Page"></g>
                    <g id="Page"></g>
                </g>
            </g>
        </g>
    </g>
</svg>