<svg class="soc-icon__vk" width="34px" height="20px" xmlns="http://www.w3.org/2000/svg">
            <g transform="translate(-1225.000000, -3046.000000)" fill="#282A2C" fill-rule="nonzero">
              <g transform="translate(576.000000, 2866.000000)">
                <g transform="translate(1.000000, 172.000000)">
                  <g transform="translate(648.000000, 5.000000)">
                    <g transform="translate(0.000000, 3.000000)">
                      <path
                        d="M32.4892578,15.2522539 C31.7496914,14.3659297 30.914168,13.5745664 30.1060703,12.8092344 C29.8221172,12.5402227 29.5283359,12.2620469 29.2454453,11.9858633 C29.2453789,11.9857969 29.2453125,11.9857305 29.2452461,11.9856641 C28.8647383,11.6145195 28.6784687,11.3510859 28.6590117,11.1565156 C28.6398867,10.9652656 28.7705742,10.6815117 29.0711953,10.2620898 C29.5206992,9.63123047 29.9998203,8.99930859 30.4633359,8.38823828 C30.8753203,7.84503516 31.30125,7.28330469 31.7095156,6.71838672 L31.8011562,6.59155078 C32.5976992,5.48907422 33.4212695,4.34907813 33.8626055,2.95985938 C33.9886445,2.56155469 34.1195312,1.97213281 33.8038359,1.45469531 C33.4880078,0.937125 32.9025039,0.783726563 32.4898555,0.71346875 C32.2883125,0.6789375 32.0970625,0.676082031 31.9190937,0.676082031 L26.7522891,0.6715 C25.8589922,0.656625 25.2392891,1.08003125 24.9015469,1.93029688 C24.6312734,2.60936719 24.3120586,3.39634766 23.9422422,4.14288672 C23.2346836,5.58410156 22.3356094,7.24405859 21.0324531,8.62710156 L20.9745469,8.68872656 C20.8858281,8.78342188 20.7408633,8.93828125 20.6664219,8.97380859 C20.5252422,8.88508984 20.3623477,8.37767969 20.3697852,8.11185547 C20.3699844,8.10528125 20.3700508,8.09877344 20.3700508,8.09226563 L20.3654687,2.12214453 C20.3654687,2.09179688 20.3633437,2.06144922 20.359293,2.03136719 C20.2434141,1.17964063 20.0175,0.325789063 18.6694531,0.059765625 C18.6262227,0.0511992188 18.5822617,0.0469492188 18.5383008,0.0469492188 L13.1637109,0.0469492188 C12.152543,0.0469492188 11.617707,0.51 11.1889219,1.01203125 C11.0648086,1.15839063 10.7350352,1.547 10.903043,2.02207031 C11.073043,2.50278516 11.5795898,2.59874219 11.7458711,2.63021875 C12.3315742,2.74138281 12.6344531,3.07241797 12.7282187,3.70526953 C12.9135586,4.93491406 12.9362695,6.25035547 12.7998047,7.84297656 C12.7617539,8.27056641 12.6909648,8.59555859 12.5767461,8.86583203 C12.5451367,8.94067188 12.5173789,8.98702344 12.4979883,9.01431641 C12.467043,9.00183203 12.4188984,8.97792578 12.3522266,8.93230469 C11.9406406,8.65067578 11.630457,8.21285938 11.3305,7.78958594 C10.1323984,6.09801953 9.12461719,4.22974609 8.24918359,2.0771875 C7.88866406,1.19511328 7.21092187,0.702445313 6.3420625,0.689695313 C4.6866875,0.662136719 3.15569141,0.662800781 1.66314453,0.691820313 C0.959171875,0.704039063 0.465507813,0.925636719 0.195632813,1.35057031 C-0.0745742187,1.77630078 -0.0646796875,2.31910547 0.225117188,2.96417578 C2.29672656,7.57077734 4.17775,10.9219023 6.324,13.8300977 C7.83520703,15.8775352 9.35644141,17.2987617 11.1113594,18.3028242 C12.9551953,19.3576875 15.0346406,19.8746602 17.4470469,19.8745938 C17.7213711,19.8745938 18.0004766,19.8678867 18.2833008,19.8544063 C19.7716641,19.7866055 20.3772227,19.1945938 20.4432969,17.7450117 C20.4803516,16.9788828 20.5656172,16.35825 20.861457,15.8190313 C20.9441992,15.6680898 21.0375664,15.5668867 21.1111445,15.5483594 C21.1893711,15.5288359 21.3280937,15.5767148 21.4823555,15.6769219 C21.7643828,15.8600703 22.0072305,16.1084297 22.2069141,16.3264414 C22.4093203,16.5480391 22.6138516,16.7769414 22.8118086,16.9982734 C23.2330234,17.4695586 23.668582,17.9569141 24.1249258,18.4217578 C25.1570781,19.4738984 26.3469453,19.9564063 27.662918,19.8553359 L32.391375,19.8575273 C32.3915078,19.8575273 32.3915742,19.8575273 32.3916406,19.8575273 C32.4066484,19.8575273 32.4216562,19.8570625 32.4366641,19.8560664 C32.9820586,19.8197422 33.4536094,19.517793 33.7305234,19.0274492 C34.0639492,18.4369648 34.0589023,17.6890313 33.7167773,17.0259648 C33.3597773,16.3366016 32.8965937,15.7432617 32.4892578,15.2522539 Z M32.551082,18.3614609 C32.4858711,18.4769414 32.4054531,18.4979922 32.3639492,18.5030391 L27.6364883,18.5008477 C27.6363555,18.5008477 27.6362227,18.5008477 27.6360234,18.5008477 C27.6173633,18.5008477 27.5987031,18.5015781 27.5801758,18.5031719 C26.6488281,18.5807344 25.8571992,18.2533516 25.091668,17.4730781 C24.6574375,17.0306797 24.2325703,16.5554102 23.8217148,16.0957461 C23.6215,15.8717578 23.4145117,15.6400664 23.2065273,15.4124258 C22.9486055,15.1307305 22.6297891,14.807 22.2201289,14.5409766 C21.6068008,14.1428711 21.0985273,14.1548906 20.7802422,14.2351094 C20.4652773,14.3144648 20.0175664,14.5409102 19.6739141,15.1680508 C19.2287266,15.9794688 19.1305117,16.8548359 19.0905352,17.681793 C19.0674258,18.187543 18.9818945,18.3211523 18.946168,18.3550859 C18.8993516,18.3995781 18.7428984,18.4778047 18.2208789,18.5016445 C15.7123164,18.619582 13.6071055,18.1703438 11.7840547,17.1273008 C10.1981406,16.2199258 8.80945312,14.9165703 7.41392578,13.025918 C5.32710937,10.1984063 3.49097656,6.92404688 1.46060547,2.40908594 C1.38702734,2.24552734 1.36431641,2.14346094 1.35774219,2.08880859 C1.40953906,2.07180859 1.51074219,2.04942969 1.68817969,2.04617578 C3.16558594,2.01755469 4.68057812,2.01675781 6.32101172,2.04411719 C6.54559766,2.0474375 6.80132812,2.11483984 6.99496875,2.58864844 C7.90964844,4.83776172 8.96623828,6.79508594 10.2253008,8.57264844 C10.5595898,9.04446484 10.9756914,9.63176172 11.5872266,10.0501875 C12.1473633,10.43375 12.6019141,10.4154219 12.8846719,10.3325469 C13.1675625,10.2496055 13.5601562,10.0191758 13.8245859,9.39309766 C13.9951836,8.98954688 14.0983125,8.53512891 14.1493789,7.96098047 C14.2952734,6.25746094 14.269375,4.84114844 14.0680312,3.50525391 C13.9261211,2.54814062 13.4319258,1.85671875 12.6534453,1.50363672 C12.7917031,1.43165234 12.9474922,1.40163672 13.1638437,1.40163672 L18.4681758,1.40163672 C18.7666055,1.46857422 18.825707,1.54719922 18.8459609,1.57409375 C18.9318906,1.68837891 18.9810312,1.95871875 19.0110469,2.16995703 L19.0155625,8.08502734 C19.0036094,8.65207031 19.2791953,9.90967188 20.2175156,10.2545195 C20.2252187,10.257375 20.2329883,10.2600313 20.2407578,10.2625547 C21.0950078,10.5417266 21.6600586,9.93869141 21.9634023,9.61469531 L22.017457,9.5571875 C23.4449258,8.04212891 24.4061562,6.27187109 25.1571445,4.74220313 C25.548543,3.95230078 25.880043,3.13523828 26.1603437,2.43093359 C26.3005937,2.07771875 26.4282266,2.01954687 26.7327656,2.02598828 C26.7369492,2.02612109 26.7410664,2.02612109 26.7453164,2.02612109 L31.9186953,2.03070312 C32.0390234,2.03070312 32.1645977,2.03209766 32.2620156,2.04876562 C32.5085156,2.09073437 32.6100508,2.14186719 32.6435195,2.16305078 C32.6469727,2.20229687 32.6461758,2.3151875 32.571668,2.55079687 C32.1964062,3.73209766 31.4711836,4.73576172 30.7034609,5.79839453 L30.6117539,5.92542969 C30.2128516,6.47739844 29.7916367,7.03275391 29.3843672,7.56991406 C28.914875,8.18888672 28.4295781,8.82884375 27.9694492,9.47471094 C26.985707,10.8472617 27.072168,11.7580898 28.2998203,12.9555273 C28.5899492,13.23875 28.8873164,13.5204453 29.1749883,13.7928438 C29.9905234,14.5653477 30.7609023,15.2949531 31.4484062,16.1187891 C31.8083281,16.5526875 32.2163281,17.0737773 32.5136953,17.6480586 C32.6688203,17.9486797 32.6307695,18.2202813 32.551082,18.3614609 Z"
                        id="Shape"
                      ></path>
                    </g>
                  </g>
                </g>
              </g>
            </g>
          </svg>